<?xml version="1.0" encoding="UTF-8"?>
<svg version="1.1" xmlns="http://www.w3.org/2000/svg" width="1080" height="1080">
<path d="M0 0 C1.65 0 3.3 0 5 0 C5.84114171 1.43294498 6.67265687 2.87154405 7.5 4.3125 C7.9640625 5.11300781 8.428125 5.91351563 8.90625 6.73828125 C10 9 10 9 10 12 C10.66 12 11.32 12 12 12 C12.33 13.98 12.66 15.96 13 18 C13.99 18.33 14.98 18.66 16 19 C16 19.99 16 20.98 16 22 C16.66 22 17.32 22 18 22 C18.33 23.98 18.66 25.96 19 28 C19.99 28.33 20.98 28.66 22 29 C23.60546875 31.3984375 23.60546875 31.3984375 25.1875 34.375 C25.71730469 35.35210937 26.24710938 36.32921875 26.79296875 37.3359375 C28 40 28 40 28 43 C28.66 43 29.32 43 30 43 C30.66 45.31 31.32 47.62 32 50 C32.66 50 33.32 50 34 50 C34.33 51.98 34.66 53.96 35 56 C35.66 56 36.32 56 37 56 C38.72264494 59.29549466 40.29445932 62.33118845 41 66 C41.66 66 42.32 66 43 66 C43.33 67.98 43.66 69.96 44 72 C44.66 72 45.32 72 46 72 C46.95921722 73.74951568 47.91733817 75.49963244 48.875 77.25 C49.40867188 78.22453125 49.94234375 79.1990625 50.4921875 80.203125 C50.98976562 81.12609375 51.48734375 82.0490625 52 83 C52.39445313 83.71671875 52.78890625 84.4334375 53.1953125 85.171875 C54 87 54 87 54 90 C54.66 90 55.32 90 56 90 C56.33 90.99 56.66 91.98 57 93 C57.66 93.33 58.32 93.66 59 94 C59.625 97.0625 59.625 97.0625 60 100 C60.66 100 61.32 100 62 100 C66 106.625 66 106.625 66 110 C66.66 110 67.32 110 68 110 C68.33 111.65 68.66 113.3 69 115 C69.66 115 70.32 115 71 115 C71.96345444 116.87237371 72.92053102 118.7480299 73.875 120.625 C74.40867188 121.66914062 74.94234375 122.71328125 75.4921875 123.7890625 C76.91454291 126.81801625 78.0122001 129.80643334 79 133 C79.66 133 80.32 133 81 133 C81.33 134.65 81.66 136.3 82 138 C82.66 138 83.32 138 84 138 C84.33 139.65 84.66 141.3 85 143 C85.66 143 86.32 143 87 143 C87.33 144.65 87.66 146.3 88 148 C88.66 148 89.32 148 90 148 C90.33 149.65 90.66 151.3 91 153 C91.66 153 92.32 153 93 153 C93.40992188 153.75925781 93.81984375 154.51851562 94.2421875 155.30078125 C94.78101563 156.29464844 95.31984375 157.28851562 95.875 158.3125 C96.40867188 159.29863281 96.94234375 160.28476562 97.4921875 161.30078125 C99.00722126 164.09586458 99.00722126 164.09586458 101 167 C101 167.99 101 168.98 101 170 C101.66 170 102.32 170 103 170 C103.33 171.65 103.66 173.3 104 175 C104.66 175 105.32 175 106 175 C106.33 176.98 106.66 178.96 107 181 C107.66 181 108.32 181 109 181 C113 187.625 113 187.625 113 191 C113.66 191 114.32 191 115 191 C115.95921722 192.74951568 116.91733817 194.49963244 117.875 196.25 C118.40867187 197.22453125 118.94234375 198.1990625 119.4921875 199.203125 C119.98976563 200.12609375 120.48734375 201.0490625 121 202 C121.39445313 202.71671875 121.78890625 203.4334375 122.1953125 204.171875 C123 206 123 206 123 209 C123.66 209 124.32 209 125 209 C125.33 210.32 125.66 211.64 126 213 C126.66 213 127.32 213 128 213 C132 219.625 132 219.625 132 223 C132.66 223 133.32 223 134 223 C134.33 225.97 134.66 228.94 135 232 C47.55 232 -39.9 232 -130 232 C-129.67 229.03 -129.34 226.06 -129 223 C-128.34 223 -127.68 223 -127 223 C-126.896875 222.278125 -126.79375 221.55625 -126.6875 220.8125 C-125.92325019 217.68602348 -124.73770922 215.70310324 -123 213 C-122.26454513 211.73279539 -121.53555509 210.4618205 -120.8125 209.1875 C-119.9153125 207.6096875 -119.9153125 207.6096875 -119 206 C-118.34 206 -117.68 206 -117 206 C-116.67 204.02 -116.34 202.04 -116 200 C-115.34 200 -114.68 200 -114 200 C-113.9071875 199.01 -113.9071875 199.01 -113.8125 198 C-112.84813391 194.43926366 -111.19399447 191.91195685 -109.15625 188.8671875 C-107.83827223 186.89916091 -107.83827223 186.89916091 -107 184 C-106.34 184 -105.68 184 -105 184 C-104.67 182.35 -104.34 180.7 -104 179 C-103.34 179 -102.68 179 -102 179 C-101.855625 178.401875 -101.71125 177.80375 -101.5625 177.1875 C-101.1127561 175.43849596 -100.57107659 173.71322977 -100 172 C-99.34 172 -98.68 172 -98 172 C-97.896875 171.278125 -97.79375 170.55625 -97.6875 169.8125 C-96.93206053 166.72206579 -95.84468685 164.58256159 -94 162 C-93.34 162 -92.68 162 -92 162 C-91.67 160.35 -91.34 158.7 -91 157 C-90.34 157 -89.68 157 -89 157 C-88.896875 156.278125 -88.79375 155.55625 -88.6875 154.8125 C-87.93206053 151.72206579 -86.84468685 149.58256159 -85 147 C-84.34 147 -83.68 147 -83 147 C-82.67 145.35 -82.34 143.7 -82 142 C-81.34 142 -80.68 142 -80 142 C-79.79375 141.05125 -79.5875 140.1025 -79.375 139.125 C-78.1442746 134.75990919 -75.85210374 131.20202433 -73.46484375 127.37890625 C-71.7863856 124.65309022 -70.3691189 121.89036212 -69 119 C-68.34 119 -67.68 119 -67 119 C-66.896875 118.278125 -66.79375 117.55625 -66.6875 116.8125 C-65.93206053 113.72206579 -64.84468685 111.58256159 -63 109 C-62.34 109 -61.68 109 -61 109 C-60.67 107.02 -60.34 105.04 -60 103 C-59.34 103 -58.68 103 -58 103 C-57.5978125 101.700625 -57.5978125 101.700625 -57.1875 100.375 C-56.02888013 97.08208036 -54.61790161 94.08872125 -53 91 C-52.34 91 -51.68 91 -51 91 C-50.67 89.02 -50.34 87.04 -50 85 C-49.34 85 -48.68 85 -48 85 C-47.505 83.02 -47.505 83.02 -47 81 C-46.34 81 -45.68 81 -45 81 C-44.67 79.02 -44.34 77.04 -44 75 C-43.34 75 -42.68 75 -42 75 C-41.896875 74.46375 -41.79375 73.9275 -41.6875 73.375 C-40.81907303 70.37497956 -39.44379704 67.7620465 -38 65 C-37.34 65 -36.68 65 -36 65 C-35.86271484 63.97326172 -35.86271484 63.97326172 -35.72265625 62.92578125 C-34.82696359 59.29943637 -33.24973718 56.44952692 -31.4375 53.1875 C-31.10814453 52.59001953 -30.77878906 51.99253906 -30.43945312 51.37695312 C-29.63226733 49.91466002 -28.81695083 48.4568601 -28 47 C-27.34 47 -26.68 47 -26 47 C-25.67 45.02 -25.34 43.04 -25 41 C-24.34 41 -23.68 41 -23 41 C-22.67 39.68 -22.34 38.36 -22 37 C-21.34 37 -20.68 37 -20 37 C-19.67 35.02 -19.34 33.04 -19 31 C-18.34 31 -17.68 31 -17 31 C-16.67 29.35 -16.34 27.7 -16 26 C-15.34 26 -14.68 26 -14 26 C-13.75378906 25.15824219 -13.50757813 24.31648438 -13.25390625 23.44921875 C-11.85525532 19.6018394 -10.0270645 16.31504371 -7.9375 12.8125 C-5.11129079 8.08109198 -5.11129079 8.08109198 -3 3 C-2.34 3 -1.68 3 -1 3 C-0.67 2.01 -0.34 1.02 0 0 Z " fill="#000000" transform="translate(159,425)"/>
<path d="M0 0 C0 0.66 0 1.32 0 2 C0.86625 2.103125 1.7325 2.20625 2.625 2.3125 C6.16683123 3.03398414 8.84312042 4.27123261 12 6 C12 6.66 12 7.32 12 8 C12.53625 8.0825 13.0725 8.165 13.625 8.25 C19.1700682 10.00107417 22.57339317 13.47198383 26 18 C26.66 18.33 27.32 18.66 28 19 C28.625 21.5625 28.625 21.5625 29 24 C29.99 24.33 30.98 24.66 32 25 C32 25.99 32 26.98 32 28 C32.66 28 33.32 28 34 28 C34.33 29.98 34.66 31.96 35 34 C35.66 34 36.32 34 37 34 C41.66264632 46.27468752 44.33942385 61.99076622 41 75 C37.8642883 78.1357117 33.98963814 77.30883822 29.77685547 77.31884766 C28.34264252 77.33391609 28.34264252 77.33391609 26.87945557 77.34928894 C23.70870585 77.3802608 20.53804109 77.3971949 17.3671875 77.4140625 C15.17285423 77.43276289 12.97852822 77.45233544 10.78421021 77.4727478 C5.00071491 77.5241943 -0.78280373 77.56375291 -6.56640625 77.60089111 C-12.4649031 77.64085246 -18.36330178 77.6919806 -24.26171875 77.7421875 C-35.841077 77.83909493 -47.42049052 77.92345213 -59 78 C-59 78.99 -59 79.98 -59 81 C-58.01 81.33 -57.02 81.66 -56 82 C-56 82.66 -56 83.32 -56 84 C-55.01 84.33 -54.02 84.66 -53 85 C-53 85.66 -53 86.32 -53 87 C-52.01 87.33 -51.02 87.66 -50 88 C-50 88.66 -50 89.32 -50 90 C-49.319375 90.268125 -48.63875 90.53625 -47.9375 90.8125 C-45.79190554 91.67986797 -43.66934507 92.60484315 -41.5625 93.5625 C-31.48411094 97.62921839 -19.08726242 97.37899436 -8.953125 93.65625 C-7 93 -7 93 -4 93 C-4 92.34 -4 91.68 -4 91 C-3.01 90.67 -2.02 90.34 -1 90 C-0.401875 89.154375 0.19625 88.30875 0.8125 87.4375 C3 85 3 85 6.25 84.6875 C7.1575 84.790625 8.065 84.89375 9 85 C9 85.66 9 86.32 9 87 C9.721875 87.103125 10.44375 87.20625 11.1875 87.3125 C14.27793421 88.06793947 16.41743841 89.15531315 19 91 C19 91.66 19 92.32 19 93 C19.721875 93.103125 20.44375 93.20625 21.1875 93.3125 C24.27793421 94.06793947 26.41743841 95.15531315 29 97 C29 97.66 29 98.32 29 99 C30.65 99.33 32.3 99.66 34 100 C34.3125 102.75 34.3125 102.75 34 106 C31.6875 108.1875 31.6875 108.1875 29 110 C27.9919467 110.99188132 26.99241499 111.99247209 26 113 C12.14609679 125.45804394 -6.44828993 129.19531613 -24.4375 129.125 C-25.42298828 129.12886719 -26.40847656 129.13273438 -27.42382812 129.13671875 C-33.36354596 129.12884636 -39.10969007 128.76750677 -45 128 C-45 127.34 -45 126.68 -45 126 C-45.61746094 125.97421875 -46.23492188 125.9484375 -46.87109375 125.921875 C-53.31215364 125.49051026 -58.28233058 123.96932108 -64 121 C-64 120.34 -64 119.68 -64 119 C-64.7425 118.896875 -65.485 118.79375 -66.25 118.6875 C-69.1973519 117.95066203 -70.78383074 117.05200858 -73 115 C-73 114.34 -73 113.68 -73 113 C-74.12148438 112.87044922 -74.12148438 112.87044922 -75.265625 112.73828125 C-78.53804162 111.85472876 -79.5940853 110.75838058 -81.75 108.1875 C-82.34296875 107.50042969 -82.9359375 106.81335938 -83.546875 106.10546875 C-84.99080291 104.0133259 -85.57578399 102.4838964 -86 100 C-86.66 100 -87.32 100 -88 100 C-88.33 98.68 -88.66 97.36 -89 96 C-89.66 96 -90.32 96 -91 96 C-91.495 93.03 -91.495 93.03 -92 90 C-92.66 90 -93.32 90 -94 90 C-94.33 87.36 -94.66 84.72 -95 82 C-95.66 82 -96.32 82 -97 82 C-97.13277344 80.91460938 -97.26554687 79.82921875 -97.40234375 78.7109375 C-97.58066254 77.26561678 -97.75905169 75.82030474 -97.9375 74.375 C-98.02451172 73.66214844 -98.11152344 72.94929687 -98.20117188 72.21484375 C-98.60114348 68.9854434 -99.03637398 65.80344494 -99.62890625 62.6015625 C-100 60 -100 60 -99 58 C-98.68015422 55.45867993 -98.39334452 52.92168716 -98.125 50.375 C-97.45961481 44.49546221 -96.48562751 39.42318729 -94 34 C-93.34 34 -92.68 34 -92 34 C-91.505 31.03 -91.505 31.03 -91 28 C-90.34 28 -89.68 28 -89 28 C-88.67 26.68 -88.34 25.36 -88 24 C-87.34 24 -86.68 24 -86 24 C-85.67 22.35 -85.34 20.7 -85 19 C-84.01 18.67 -83.02 18.34 -82 18 C-81.67 17.01 -81.34 16.02 -81 15 C-80.34 15 -79.68 15 -79 15 C-78.67 14.01 -78.34 13.02 -78 12 C-75.6015625 10.17578125 -75.6015625 10.17578125 -72.625 8.3125 C-71.64789063 7.68988281 -70.67078125 7.06726563 -69.6640625 6.42578125 C-67 5 -67 5 -64 5 C-64 4.34 -64 3.68 -64 3 C-60.535 2.505 -60.535 2.505 -57 2 C-57 1.34 -57 0.68 -57 0 C-53.7 -0.33 -50.4 -0.66 -47 -1 C-47 -1.66 -47 -2.32 -47 -3 C-30.99836555 -5.32751047 -15.55547267 -4.18497488 0 0 Z M-51 35 C-51 35.66 -51 36.32 -51 37 C-51.99 37.33 -52.98 37.66 -54 38 C-54 38.66 -54 39.32 -54 40 C-54.99 40.33 -55.98 40.66 -57 41 C-57 41.99 -57 42.98 -57 44 C-57.66 44 -58.32 44 -59 44 C-59.33 45.65 -59.66 47.3 -60 49 C-39.21 49 -18.42 49 3 49 C2.67 47.35 2.34 45.7 2 44 C1.34 44 0.68 44 0 44 C-0.495 42.02 -0.495 42.02 -1 40 C-1.66 40 -2.32 40 -3 40 C-3.495 38.515 -3.495 38.515 -4 37 C-4.66 37 -5.32 37 -6 37 C-6.495 35.515 -6.495 35.515 -7 34 C-7.99 34 -8.98 34 -10 34 C-10 33.34 -10 32.68 -10 32 C-23.07817581 26.72160111 -39.54821451 24.73381113 -51 35 Z " fill="#020102" transform="translate(570,485)"/>
<path d="M0 0 C0 0.66 0 1.32 0 2 C0.64066406 2.03738281 1.28132812 2.07476562 1.94140625 2.11328125 C7.60006141 2.54337277 11.92173813 3.46086906 17 6 C17 6.66 17 7.32 17 8 C19.97 8.495 19.97 8.495 23 9 C23 9.66 23 10.32 23 11 C23.72574219 11.24878906 24.45148438 11.49757813 25.19921875 11.75390625 C28.26119699 13.11620898 30.31516662 14.71350659 32.8125 16.9375 C33.60269531 17.62714844 34.39289063 18.31679688 35.20703125 19.02734375 C37 21 37 21 37 24 C38.485 24.495 38.485 24.495 40 25 C40 25.66 40 26.32 40 27 C40.66 27 41.32 27 42 27 C42.33 28.98 42.66 30.96 43 33 C43.66 33 44.32 33 45 33 C45.61271465 34.28763384 46.21450519 35.58046443 46.8125 36.875 C47.14894531 37.59429688 47.48539063 38.31359375 47.83203125 39.0546875 C51.39109267 48.02971195 52.47280344 55.82832604 52.375 65.5 C52.38660156 66.67820312 52.39820313 67.85640625 52.41015625 69.0703125 C52.40628906 70.19179688 52.40242187 71.31328125 52.3984375 72.46875 C52.39505371 73.48388672 52.39166992 74.49902344 52.38818359 75.54492188 C52.26008301 76.35509766 52.13198242 77.16527344 52 78 C48.96334765 80.0244349 48.36540532 80.25201497 44.95674133 80.2784729 C44.1364444 80.28963638 43.31614746 80.30079987 42.47099304 80.31230164 C41.12663933 80.31554192 41.12663933 80.31554192 39.75512695 80.31884766 C38.80859253 80.32889328 37.86205811 80.3389389 36.88684082 80.34928894 C33.75399389 80.38021307 30.62123276 80.39718177 27.48828125 80.4140625 C25.31779741 80.43276672 23.1473209 80.45233956 20.97685242 80.4727478 C15.26077589 80.52415381 9.54467576 80.56373422 3.82849121 80.60089111 C-2.00307086 80.64087769 -7.83453405 80.69199439 -13.66601562 80.7421875 C-25.11060771 80.83904706 -36.55525552 80.92341973 -48 81 C-48 81.99 -48 82.98 -48 84 C-47.34 84 -46.68 84 -46 84 C-45.67 85.32 -45.34 86.64 -45 88 C-44.34 88 -43.68 88 -43 88 C-43 88.66 -43 89.32 -43 90 C-42.0409375 90.185625 -42.0409375 90.185625 -41.0625 90.375 C-40.381875 90.58125 -39.70125 90.7875 -39 91 C-38.67 91.66 -38.34 92.32 -38 93 C-37.01 93.33 -36.02 93.66 -35 94 C-35 94.66 -35 95.32 -35 96 C-32.03 96.495 -32.03 96.495 -29 97 C-29 97.66 -29 98.32 -29 99 C-19.76 99 -10.52 99 -1 99 C-1 98.34 -1 97.68 -1 97 C1.64 96.67 4.28 96.34 7 96 C7.495 94.515 7.495 94.515 8 93 C8.99 93 9.98 93 11 93 C11.495 91.515 11.495 91.515 12 90 C12.66 90 13.32 90 14 90 C14 89.34 14 88.68 14 88 C15.98 88 17.96 88 20 88 C20 88.66 20 89.32 20 90 C21.98 90.495 21.98 90.495 24 91 C24 91.66 24 92.32 24 93 C25.98 93.33 27.96 93.66 30 94 C30 94.66 30 95.32 30 96 C31.98 96.495 31.98 96.495 34 97 C34 97.66 34 98.32 34 99 C35.98 99.33 37.96 99.66 40 100 C40 100.66 40 101.32 40 102 C40.99 102.33 41.98 102.66 43 103 C43 103.66 43 104.32 43 105 C43.66 105 44.32 105 45 105 C45 105.66 45 106.32 45 107 C44.34 107 43.68 107 43 107 C42.95875 107.7425 42.9175 108.485 42.875 109.25 C41.64107722 113.12804301 39.47911685 114.08293561 36 116 C35.34 116 34.68 116 34 116 C33.505 117.485 33.505 117.485 33 119 C32.01 119 31.02 119 30 119 C30 119.66 30 120.32 30 121 C22.9027231 125.51644893 14.56501057 129.43923131 6 129 C6 129.66 6 130.32 6 131 C-0.69359763 132.01369387 -7.2365907 132.15011167 -14 132.125 C-15.0415625 132.12886719 -16.083125 132.13273438 -17.15625 132.13671875 C-22.86628357 132.12950911 -28.35332001 131.85514625 -34 131 C-34 130.34 -34 129.68 -34 129 C-34.63164063 129.00902344 -35.26328125 129.01804687 -35.9140625 129.02734375 C-44.8631355 128.73076064 -51.35677779 125.27350965 -59 121 C-59 120.34 -59 119.68 -59 119 C-59.70125 118.773125 -60.4025 118.54625 -61.125 118.3125 C-66.68140511 115.77588028 -70.30917143 111.74535102 -74 107 C-74.66 106.67 -75.32 106.34 -76 106 C-77.05771739 104.36935236 -78.05273046 102.69719127 -79 101 C-79.391875 100.29875 -79.78375 99.5975 -80.1875 98.875 C-81 97 -81 97 -81 94 C-81.66 94 -82.32 94 -83 94 C-83.33 91.69 -83.66 89.38 -84 87 C-84.66 87 -85.32 87 -86 87 C-86.13277344 86.00097656 -86.26554688 85.00195312 -86.40234375 83.97265625 C-86.57894531 82.68230469 -86.75554688 81.39195312 -86.9375 80.0625 C-87.11152344 78.77472656 -87.28554688 77.48695313 -87.46484375 76.16015625 C-87.66162423 73.14533687 -87.66162423 73.14533687 -89 72 C-89.07271741 69.64686445 -89.08370868 67.29166332 -89.0625 64.9375 C-89.05347656 63.64714844 -89.04445313 62.35679687 -89.03515625 61.02734375 C-89.02355469 60.02832031 -89.01195312 59.02929688 -89 58 C-88.34 58 -87.68 58 -87 58 C-87.01160156 57.41992188 -87.02320313 56.83984375 -87.03515625 56.2421875 C-87.08762174 51.7001754 -86.91751063 47.47286431 -86 43 C-85.34 43 -84.68 43 -84 43 C-83.505 40.03 -83.505 40.03 -83 37 C-82.34 37 -81.68 37 -81 37 C-80.90589844 36.12085938 -80.81179688 35.24171875 -80.71484375 34.3359375 C-79.9322283 30.68373207 -78.73647182 28.63511483 -76.5625 25.625 C-75.94503906 24.75101562 -75.32757812 23.87703125 -74.69140625 22.9765625 C-74.13324219 22.32429688 -73.57507813 21.67203125 -73 21 C-72.34 21 -71.68 21 -71 21 C-70.67 20.01 -70.34 19.02 -70 18 C-69.34 18 -68.68 18 -68 18 C-67.67 17.01 -67.34 16.02 -67 15 C-64.60842575 12.99730909 -61.90193958 11.44895215 -59.25 9.8125 C-58.53328125 9.34908203 -57.8165625 8.88566406 -57.078125 8.40820312 C-50.51932857 4.31498366 -50.51932857 4.31498366 -46 5 C-46 4.34 -46 3.68 -46 3 C-42.7 2.67 -39.4 2.34 -36 2 C-36 1.34 -36 0.68 -36 0 C-24.01997762 -1.57854413 -11.9891378 -1.39582477 0 0 Z M-42.25 39.0625 C-44.10728244 41.45765878 -45.03055534 43.09166603 -46 46 C-46.66 46 -47.32 46 -48 46 C-48.33 47.98 -48.66 49.96 -49 52 C-28.21 52 -7.42 52 14 52 C14 51.34 14 50.68 14 50 C13.34 50 12.68 50 12 50 C11.9175 49.0925 11.835 48.185 11.75 47.25 C10.90305826 43.57991912 9.92092737 42.30133672 7 40 C6.34 40 5.68 40 5 40 C4.505 38.515 4.505 38.515 4 37 C3.01 37 2.02 37 1 37 C1 36.34 1 35.68 1 35 C-12.40678129 29.49978203 -31.45305809 27.12209377 -42.25 39.0625 Z " fill="#020102" transform="translate(948,482)"/>
<path d="M0 0 C5.38863532 -0.37317419 10.76966782 -0.64387903 16.16821289 -0.82397461 C17.99962315 -0.89905226 19.83014436 -1.0011745 21.65844727 -1.1315918 C36.4167786 -2.15731393 36.4167786 -2.15731393 40.68585205 1.40789795 C43.57392299 4.93170545 45.44104313 8.84405617 47.14944458 13.04293823 C48.03223818 15.07417755 49.07719828 16.90848865 50.21850586 18.80493164 C52 22 52 22 52 25 C52.66 25 53.32 25 54 25 C54.495 27.475 54.495 27.475 55 30 C55.66 30 56.32 30 57 30 C57.495 32.475 57.495 32.475 58 35 C58.66 35 59.32 35 60 35 C60.495 37.475 60.495 37.475 61 40 C61.66 40 62.32 40 63 40 C63.495 42.97 63.495 42.97 64 46 C64.66 46 65.32 46 66 46 C66.40992188 46.75925781 66.81984375 47.51851563 67.2421875 48.30078125 C67.78101563 49.29464844 68.31984375 50.28851563 68.875 51.3125 C69.40867187 52.29863281 69.94234375 53.28476562 70.4921875 54.30078125 C72.00722126 57.09586458 72.00722126 57.09586458 74 60 C74 60.99 74 61.98 74 63 C74.66 63 75.32 63 76 63 C76.33 64.65 76.66 66.3 77 68 C77.66 68 78.32 68 79 68 C79.33 69.98 79.66 71.96 80 74 C80.66 74 81.32 74 82 74 C82.33 74.99 82.66 75.98 83 77 C83.66 77.33 84.32 77.66 85 78 C85.625 81.0625 85.625 81.0625 86 84 C87.485 84.495 87.485 84.495 89 85 C90.2109375 87.00390625 90.2109375 87.00390625 91.375 89.5625 C93.3332627 93.71711205 95.50511302 97.51061273 98.08203125 101.30859375 C99 103 99 103 99 106 C99.66 106 100.32 106 101 106 C101.28875 105.0925 101.5775 104.185 101.875 103.25 C102.76531776 100.67797092 103.71494413 98.38653234 105 96 C105.66 96 106.32 96 107 96 C107.33 94.35 107.66 92.7 108 91 C108.66 91 109.32 91 110 91 C110.33 89.02 110.66 87.04 111 85 C111.66 85 112.32 85 113 85 C113.495 83.02 113.495 83.02 114 81 C114.66 81 115.32 81 116 81 C116.185625 79.5459375 116.185625 79.5459375 116.375 78.0625 C116.58125 77.051875 116.7875 76.04125 117 75 C117.66 74.67 118.32 74.34 119 74 C119.72693904 72.02111039 120.39816251 70.02045442 121 68 C121.66 68 122.32 68 123 68 C123.33 66.35 123.66 64.7 124 63 C124.66 63 125.32 63 126 63 C126.103125 62.278125 126.20625 61.55625 126.3125 60.8125 C127.06793947 57.72206579 128.15531315 55.58256159 130 53 C130.66 53 131.32 53 132 53 C132.103125 52.278125 132.20625 51.55625 132.3125 50.8125 C133.06793947 47.72206579 134.15531315 45.58256159 136 43 C136.66 43 137.32 43 138 43 C138.103125 42.28070313 138.20625 41.56140625 138.3125 40.8203125 C139.07481715 37.69307965 140.27714375 35.58352881 142 32.875 C143.69670099 30.19127583 144.99256926 28.02229222 146 25 C146.66 25 147.32 25 148 25 C148.33 23.68 148.66 22.36 149 21 C149.66 21 150.32 21 151 21 C151.33 19.02 151.66 17.04 152 15 C152.66 15 153.32 15 154 15 C154.1546875 13.9171875 154.1546875 13.9171875 154.3125 12.8125 C155.06793947 9.72206579 156.15531315 7.58256159 158 5 C158.66 5 159.32 5 160 5 C160.33 3.35 160.66 1.7 161 0 C166.53588533 -0.02464775 172.071739 -0.04283496 177.60766602 -0.05493164 C179.4924373 -0.05997244 181.37720465 -0.06680498 183.26196289 -0.07543945 C185.96501636 -0.08751617 188.66801831 -0.09323068 191.37109375 -0.09765625 C192.64296791 -0.10539818 192.64296791 -0.10539818 193.9405365 -0.11329651 C195.96071068 -0.11349195 197.98077934 -0.06206211 200 0 C201 1 201 1 201.0625 3.5625 C201.041875 4.366875 201.02125 5.17125 201 6 C200.34 6 199.68 6 199 6 C198.814375 7.4540625 198.814375 7.4540625 198.625 8.9375 C198.41875 9.948125 198.2125 10.95875 198 12 C197.34 12.33 196.68 12.66 196 13 C195.67 13.99 195.34 14.98 195 16 C194.34 16 193.68 16 193 16 C192.67 17.65 192.34 19.3 192 21 C191.34 21 190.68 21 190 21 C189.8453125 22.051875 189.8453125 22.051875 189.6875 23.125 C188.90640997 26.39137647 187.57941257 29.0471852 186 32 C185.34 32 184.68 32 184 32 C183.731875 33.051875 183.46375 34.10375 183.1875 35.1875 C182.12747781 38.59072912 181.08611696 41.13158918 179 44 C178.34 44 177.68 44 177 44 C176.896875 44.721875 176.79375 45.44375 176.6875 46.1875 C175.93206053 49.27793421 174.84468685 51.41743841 173 54 C172.34 54 171.68 54 171 54 C170.67 55.98 170.34 57.96 170 60 C169.34 60 168.68 60 168 60 C167.67 61.65 167.34 63.3 167 65 C166.34 65 165.68 65 165 65 C164.8453125 66.0828125 164.8453125 66.0828125 164.6875 67.1875 C163.92325019 70.31397652 162.73770922 72.29689676 161 75 C160.26454513 76.26720461 159.53555509 77.5381795 158.8125 78.8125 C158.214375 79.864375 157.61625 80.91625 157 82 C156.34 82 155.68 82 155 82 C154.67 83.98 154.34 85.96 154 88 C153.34 88 152.68 88 152 88 C151.67 89.65 151.34 91.3 151 93 C150.34 93 149.68 93 149 93 C148.67 94.65 148.34 96.3 148 98 C147.34 98 146.68 98 146 98 C145.67 99.65 145.34 101.3 145 103 C144.34 103 143.68 103 143 103 C142.8453125 104.0828125 142.8453125 104.0828125 142.6875 105.1875 C141.9266251 108.30017006 140.69435125 110.28823688 139 113 C137.95685736 114.70743248 136.91517931 116.41576063 135.875 118.125 C135.35679687 118.97320313 134.83859375 119.82140625 134.3046875 120.6953125 C132.87993639 123.03991108 132.87993639 123.03991108 132 126 C131.34 126 130.68 126 130 126 C129.67 127.65 129.34 129.3 129 131 C128.34 131 127.68 131 127 131 C126.896875 131.721875 126.79375 132.44375 126.6875 133.1875 C125.93206053 136.27793421 124.84468685 138.41743841 123 141 C122.34 141 121.68 141 121 141 C120.67 142.32 120.34 143.64 120 145 C119.34 145 118.68 145 118 145 C117.85884766 146.28777344 117.85884766 146.28777344 117.71484375 147.6015625 C116.91413726 151.40819991 115.54402729 154.03812451 113.5625 157.375 C112.94503906 158.43460938 112.32757813 159.49421875 111.69140625 160.5859375 C111.13324219 161.38257813 110.57507813 162.17921875 110 163 C109.34 163 108.68 163 108 163 C107.87625 163.969375 107.7525 164.93875 107.625 165.9375 C107.41875 166.948125 107.2125 167.95875 107 169 C106.34 169.33 105.68 169.66 105 170 C104.67 170.99 104.34 171.98 104 173 C103.34 173 102.68 173 102 173 C102 173.66 102 174.32 102 175 C100.68 175 99.36 175 98 175 C94 170 94 170 94 166 C93.34 166 92.68 166 92 166 C91.505 163.525 91.505 163.525 91 161 C90.34 161 89.68 161 89 161 C88.505 158.525 88.505 158.525 88 156 C87.34 156 86.68 156 86 156 C85.505 153.525 85.505 153.525 85 151 C84.34 151 83.68 151 83 151 C82.67 149.02 82.34 147.04 82 145 C81.01 144.67 80.02 144.34 79 144 C79 143.01 79 142.02 79 141 C78.34 141 77.68 141 77 141 C76.67 139.02 76.34 137.04 76 135 C75.01 134.67 74.02 134.34 73 134 C72.67 132.02 72.34 130.04 72 128 C71.34 128 70.68 128 70 128 C69.67 126.35 69.34 124.7 69 123 C68.34 123 67.68 123 67 123 C66.67 121.35 66.34 119.7 66 118 C65.34 118 64.68 118 64 118 C63.67 116.35 63.34 114.7 63 113 C62.34 113 61.68 113 61 113 C57 106.375 57 106.375 57 103 C56.34 103 55.68 103 55 103 C54.3490741 101.75264433 53.70448331 100.50198168 53.0625 99.25 C52.52302734 98.20585938 52.52302734 98.20585938 51.97265625 97.140625 C51.04441818 95.09775567 50.46833422 93.18884624 50 91 C49.34 91 48.68 91 48 91 C47.67 89.02 47.34 87.04 47 85 C46.01 84.67 45.02 84.34 44 84 C44 83.01 44 82.02 44 81 C43.34 81 42.68 81 42 81 C41.67 79.02 41.34 77.04 41 75 C40.34 75 39.68 75 39 75 C35 68.375 35 68.375 35 65 C34.34 65 33.68 65 33 65 C32.66226563 64.21753906 32.32453125 63.43507813 31.9765625 62.62890625 C31.53054688 61.61699219 31.08453125 60.60507812 30.625 59.5625 C29.96371094 58.04849609 29.96371094 58.04849609 29.2890625 56.50390625 C28.24923714 53.87856453 28.24923714 53.87856453 26 53 C25.375 49.9375 25.375 49.9375 25 47 C24.34 47 23.68 47 23 47 C19 40.375 19 40.375 19 37 C18.34 37 17.68 37 17 37 C16.32591692 35.73308493 15.66099503 34.46129251 15 33.1875 C14.443125 32.12595703 14.443125 32.12595703 13.875 31.04296875 C13 29 13 29 13 26 C12.34 26 11.68 26 11 26 C5 14 5 14 3.9296875 11.671875 C3.10405228 9.8168776 3.10405228 9.8168776 1 9 C0.5859375 6.93359375 0.5859375 6.93359375 0.375 4.4375 C0.30023438 3.61121094 0.22546875 2.78492188 0.1484375 1.93359375 C0.09945313 1.29550781 0.05046875 0.65742188 0 0 Z " fill="#030202" transform="translate(299,441)"/>
<path d="M0 0 C0 0.66 0 1.32 0 2 C0.85658203 2.00386719 0.85658203 2.00386719 1.73046875 2.0078125 C9.71669163 2.38871343 15.9560022 5.38967511 23 9 C23 9.66 23 10.32 23 11 C24.0828125 11.12375 24.0828125 11.12375 25.1875 11.25 C28.58926868 12.15713831 30.45466084 13.60010879 33 16 C33 16.66 33 17.32 33 18 C34.485 18.495 34.485 18.495 36 19 C36 19.66 36 20.32 36 21 C36.66 21 37.32 21 38 21 C38.495 22.485 38.495 22.485 39 24 C39.515625 24.4125 40.03125 24.825 40.5625 25.25 C42.8039884 27.97876849 42.1923317 30.60213991 42 34 C40.68 34.33 39.36 34.66 38 35 C38 35.66 38 36.32 38 37 C36.35 37.33 34.7 37.66 33 38 C33 38.66 33 39.32 33 40 C31.35 40.33 29.7 40.66 28 41 C28 41.66 28 42.32 28 43 C26.35 43.33 24.7 43.66 23 44 C23 44.66 23 45.32 23 46 C21.02 46.33 19.04 46.66 17 47 C17 47.66 17 48.32 17 49 C15.02 48.505 15.02 48.505 13 48 C12.896875 47.360625 12.79375 46.72125 12.6875 46.0625 C12.460625 45.381875 12.23375 44.70125 12 44 C10.515 43.505 10.515 43.505 9 43 C9 42.34 9 41.68 9 41 C7.515 40.505 7.515 40.505 6 40 C6 39.34 6 38.68 6 38 C4.515 37.505 4.515 37.505 3 37 C3 36.34 3 35.68 3 35 C2.21753906 34.86722656 1.43507813 34.73445312 0.62890625 34.59765625 C-0.38300781 34.42105469 -1.39492188 34.24445312 -2.4375 34.0625 C-3.44683594 33.88847656 -4.45617187 33.71445312 -5.49609375 33.53515625 C-8 33 -8 33 -9 32 C-18.49890172 31.34749949 -26.87879333 32.14643814 -36 35 C-36 35.66 -36 36.32 -36 37 C-36.9590625 37.1546875 -36.9590625 37.1546875 -37.9375 37.3125 C-38.618125 37.539375 -39.29875 37.76625 -40 38 C-40.33 38.99 -40.66 39.98 -41 41 C-41.66 41 -42.32 41 -43 41 C-43.33 41.99 -43.66 42.98 -44 44 C-44.66 44 -45.32 44 -46 44 C-46.33 45.98 -46.66 47.96 -47 50 C-47.66 50 -48.32 50 -49 50 C-49.09087891 51.28197266 -49.09087891 51.28197266 -49.18359375 52.58984375 C-49.26738281 53.69457031 -49.35117187 54.79929687 -49.4375 55.9375 C-49.51871094 57.03964844 -49.59992187 58.14179687 -49.68359375 59.27734375 C-50 62 -50 62 -51 63 C-51.16666667 65.5 -51.16666667 65.5 -51 68 C-50.67 68.33 -50.34 68.66 -50 69 C-49.4618242 72.32402697 -49.03379523 75.65724826 -48.59765625 78.99609375 C-48.26896505 82.10138987 -48.26896505 82.10138987 -46 84 C-46 84.99 -46 85.98 -46 87 C-45.01 87.33 -44.02 87.66 -43 88 C-43 88.66 -43 89.32 -43 90 C-42.01 90.33 -41.02 90.66 -40 91 C-40 91.66 -40 92.32 -40 93 C-36.77484237 94.73662334 -33.48670834 95.8905928 -30 97 C-30 97.66 -30 98.32 -30 99 C-26.68767302 99.08834684 -23.37565565 99.14083584 -20.0625 99.1875 C-19.13630859 99.21263672 -18.21011719 99.23777344 -17.25585938 99.26367188 C-11.63551558 99.32283339 -7.11467326 98.7200072 -1.87280273 96.6496582 C0 96 0 96 3 96 C3.495 94.515 3.495 94.515 4 93 C4.66 93 5.32 93 6 93 C6.495 91.515 6.495 91.515 7 90 C7.66 90 8.32 90 9 90 C9.495 88.515 9.495 88.515 10 87 C10.66 87 11.32 87 12 87 C12.495 85.515 12.495 85.515 13 84 C15.73030993 82.7323561 16.87352646 82.95688402 19.75 83.9375 C20.4925 84.288125 21.235 84.63875 22 85 C22 85.66 22 86.32 22 87 C22.721875 87.103125 23.44375 87.20625 24.1875 87.3125 C27.27793421 88.06793947 29.41743841 89.15531315 32 91 C32 91.66 32 92.32 32 93 C33.98 93.33 35.96 93.66 38 94 C38 94.66 38 95.32 38 96 C39.98 96.495 39.98 96.495 42 97 C42 97.66 42 98.32 42 99 C42.66 99 43.32 99 44 99 C44 100.32 44 101.64 44 103 C43.01 103.495 43.01 103.495 42 104 C41.67 104.99 41.34 105.98 41 107 C40.34 107 39.68 107 39 107 C38.505 108.485 38.505 108.485 38 110 C37.34 110 36.68 110 36 110 C35.773125 110.556875 35.54625 111.11375 35.3125 111.6875 C33.61382022 114.68041199 31.57927313 116.73527237 29 119 C28.01 119 27.02 119 26 119 C25.505 120.485 25.505 120.485 25 122 C18.10104665 126.56899382 11.25841817 128.96345833 3 129 C3 129.66 3 130.32 3 131 C-3.88994436 131.89775904 -10.61824801 132.15225017 -17.5625 132.125 C-18.55185547 132.12886719 -19.54121094 132.13273438 -20.56054688 132.13671875 C-26.1348588 132.12932086 -31.48645475 131.8260484 -37 131 C-37 130.34 -37 129.68 -37 129 C-38.19625 128.979375 -39.3925 128.95875 -40.625 128.9375 C-47.7393955 128.2089859 -53.82241609 124.36559692 -60 121 C-60 120.34 -60 119.68 -60 119 C-60.70125 118.773125 -61.4025 118.54625 -62.125 118.3125 C-68.3821352 115.45598176 -71.62200023 111.52365293 -74.921875 105.671875 C-75.90541706 103.83507443 -75.90541706 103.83507443 -78 103 C-78.625 99.9375 -78.625 99.9375 -79 97 C-79.66 97 -80.32 97 -81 97 C-81.33 94.69 -81.66 92.38 -82 90 C-82.66 90 -83.32 90 -84 90 C-84.33 86.37 -84.66 82.74 -85 79 C-85.66 79 -86.32 79 -87 79 C-87.05840224 74.81255925 -87.09373166 70.62522435 -87.125 66.4375 C-87.14175781 65.25607422 -87.15851562 64.07464844 -87.17578125 62.85742188 C-87.20960041 56.82070181 -87.12118668 51.67138332 -85 46 C-84.52240234 44.68322266 -84.52240234 44.68322266 -84.03515625 43.33984375 C-82.19253249 38.78878507 -80.28732349 34.34591462 -78 30 C-77.34 30 -76.68 30 -76 30 C-75.67 28.35 -75.34 26.7 -75 25 C-74.01 24.67 -73.02 24.34 -72 24 C-71.690625 23.360625 -71.38125 22.72125 -71.0625 22.0625 C-69.74945658 19.513651 -68.51625085 19.21754073 -66 18 C-65.67 17.01 -65.34 16.02 -65 15 C-62.70832354 12.0208206 -60.66464055 11.4952217 -57 11 C-57 10.34 -57 9.68 -57 9 C-48.738041 4.40774487 -48.738041 4.40774487 -44 5 C-44 4.34 -44 3.68 -44 3 C-39.545 2.505 -39.545 2.505 -35 2 C-35 1.34 -35 0.68 -35 0 C-23.15953785 -1.15718304 -11.84046215 -1.15718304 0 0 Z " fill="#030203" transform="translate(808,482)"/>
<path d="M0 0 C10.56 0 21.12 0 32 0 C33.14654482 2.29308963 33.19729117 3.79909656 33.31640625 6.3515625 C33.35830078 7.20234375 33.40019531 8.053125 33.44335938 8.9296875 C33.48267578 9.81914062 33.52199219 10.70859375 33.5625 11.625 C33.60568359 12.5221875 33.64886719 13.419375 33.69335938 14.34375 C33.79956861 16.56234283 33.90161194 18.7810488 34 21 C34.66 20.01 35.32 19.02 36 18 C36.66 18 37.32 18 38 18 C38.0928125 17.1028125 38.0928125 17.1028125 38.1875 16.1875 C39.32282895 13.13084514 41.21152775 12.53365974 44 11 C44.33 10.34 44.66 9.68 45 9 C46.9609375 7.9296875 46.9609375 7.9296875 49.375 6.875 C50.16648437 6.52179688 50.95796875 6.16859375 51.7734375 5.8046875 C54 5 54 5 57 5 C57 4.34 57 3.68 57 3 C60.3 2.67 63.6 2.34 67 2 C67 1.34 67 0.68 67 0 C71.29 0 75.58 0 80 0 C80 1.65 80 3.3 80 5 C80.66 5 81.32 5 82 5 C82.02886984 8.97915159 82.04675406 12.95827653 82.0625 16.9375 C82.07087891 18.07380859 82.07925781 19.21011719 82.08789062 20.38085938 C82.09111328 21.46044922 82.09433594 22.54003906 82.09765625 23.65234375 C82.10289307 24.65257568 82.10812988 25.65280762 82.11352539 26.68334961 C82 29 82 29 81 30 C80.67 32.31 80.34 34.62 80 37 C71.42 37.33 62.84 37.66 54 38 C54 38.66 54 39.32 54 40 C51.03 40.495 51.03 40.495 48 41 C47.67 41.99 47.34 42.98 47 44 C46.01 44 45.02 44 44 44 C44 44.66 44 45.32 44 46 C43.01 46.495 43.01 46.495 42 47 C41.67 47.99 41.34 48.98 41 50 C40.34 50 39.68 50 39 50 C38.67 51.32 38.34 52.64 38 54 C37.34 54 36.68 54 36 54 C35.90912109 55.39025391 35.90912109 55.39025391 35.81640625 56.80859375 C35.73261719 58.00613281 35.64882813 59.20367188 35.5625 60.4375 C35.48128906 61.63246094 35.40007813 62.82742188 35.31640625 64.05859375 C35 67 35 67 34 68 C33.87677242 69.77903357 33.82210981 71.56286203 33.79467773 73.34594727 C33.77473251 74.4870546 33.75478729 75.62816193 33.73423767 76.80384827 C33.70916893 78.66631447 33.70916893 78.66631447 33.68359375 80.56640625 C33.66281265 81.83016586 33.64203156 83.09392548 33.62062073 84.39598083 C33.56616286 87.76118633 33.5159572 91.12640173 33.46777344 94.49169922 C33.41760241 97.92355901 33.36189345 101.35532831 33.30664062 104.78710938 C33.19929809 111.52466761 33.09755675 118.26229336 33 125 C28.33692986 125.04937279 23.67401127 125.08570627 19.01074219 125.10986328 C17.42380117 125.11993188 15.83687875 125.13358767 14.25 125.15087891 C11.97130753 125.17509001 9.69285994 125.18647422 7.4140625 125.1953125 C6.70255035 125.20563507 5.99103821 125.21595764 5.25796509 125.22659302 C3.50368335 125.22699422 1.75003291 125.12202209 0 125 C-2 123 -2 123 -2.24609566 120.8642025 C-2.24425207 119.97375048 -2.24240849 119.08329845 -2.24050903 118.16586304 C-2.24325836 117.14500107 -2.24600769 116.1241391 -2.24884033 115.07234192 C-2.24164978 113.94809311 -2.23445923 112.8238443 -2.22705078 111.66552734 C-2.22734283 110.48505325 -2.22763489 109.30457916 -2.22793579 108.08833313 C-2.22677917 104.84675081 -2.21673177 101.60533998 -2.20278788 98.36379194 C-2.19030614 94.97785655 -2.18911204 91.59191798 -2.18673706 88.20596313 C-2.18051475 81.79216541 -2.16409382 75.37843567 -2.14403808 68.96466792 C-2.1217024 61.66368175 -2.11069153 54.36269237 -2.10064721 47.06168056 C-2.07972821 32.04108246 -2.0445377 17.02054802 -2 2 C-1.34 2 -0.68 2 0 2 C0 1.34 0 0.68 0 0 Z " fill="#030103" transform="translate(632,485)"/>
<path d="M0 0 C10.56 0 21.12 0 32 0 C33.44134794 2.88269588 33.12267016 5.35801205 33.12025452 8.58047485 C33.12110894 9.26413695 33.12196337 9.94779904 33.12284368 10.65217817 C33.12449701 12.95385467 33.11897952 15.25545906 33.11352539 17.55712891 C33.11324346 19.20272317 33.11340137 20.84831756 33.1139679 22.49391174 C33.11425565 26.9709342 33.10836253 31.44793005 33.10139394 35.92494631 C33.09515668 40.60013985 33.0945563 45.27533395 33.09336853 49.95053101 C33.09025632 58.80800373 33.0820444 67.66546416 33.07201904 76.52293146 C33.0608545 86.60500925 33.05534659 96.68708762 33.05032361 106.76917005 C33.03986171 127.5127869 33.02226438 148.25639268 33 169 C31.27747661 169.16613621 29.55468413 169.32948358 27.83178711 169.49169922 C26.87243759 169.58297089 25.91308807 169.67424255 24.92466736 169.76828003 C20.46806935 170.12137412 16.03062752 170.14548034 11.5625 170.125 C10.69173828 170.12886719 9.82097656 170.13273438 8.92382812 170.13671875 C7.6640918 170.13478516 7.6640918 170.13478516 6.37890625 170.1328125 C5.6319751 170.13168457 4.88504395 170.13055664 4.11547852 170.12939453 C2 170 2 170 -2 169 C-2 113.89 -2 58.78 -2 2 C-1.34 2 -0.68 2 0 2 C0 1.34 0 0.68 0 0 Z " fill="#020102" transform="translate(1021,441)"/>
<path d="M0 0 C0.66 0 1.32 0 2 0 C2.495 2.97 2.495 2.97 3 6 C3.66 6 4.32 6 5 6 C9.66264632 18.27468752 12.33942385 33.99076622 9 47 C6.62602199 49.37397801 6.15053892 49.25446249 2.92514038 49.2784729 C2.07256149 49.28963638 1.2199826 49.30079987 0.34156799 49.31230164 C-0.59566605 49.31446182 -1.53290009 49.31662201 -2.49853516 49.31884766 C-3.48393784 49.32889328 -4.46934052 49.3389389 -5.48460388 49.34928894 C-8.75275063 49.38026355 -12.02081495 49.39719569 -15.2890625 49.4140625 C-17.5506563 49.43276266 -19.81224303 49.45233519 -22.07382202 49.4727478 C-28.03486987 49.52419665 -33.99594038 49.56375401 -39.95709229 49.60089111 C-46.03655662 49.64085098 -52.11592569 49.69197979 -58.1953125 49.7421875 C-70.13014154 49.83909772 -82.06502421 49.92345403 -94 50 C-94 49.01 -94 48.02 -94 47 C-60.67 47 -27.34 47 7 47 C7.15839733 25.58270697 7.15839733 25.58270697 0.87109375 5.9296875 C0 4 0 4 0 0 Z " fill="#100416" transform="translate(602,513)"/>
<path d="M0 0 C0.66 0 1.32 0 2 0 C2.61271465 1.28763384 3.21450519 2.58046443 3.8125 3.875 C4.14894531 4.59429688 4.48539063 5.31359375 4.83203125 6.0546875 C8.39109267 15.02971195 9.47280344 22.82832604 9.375 32.5 C9.38660156 33.67820312 9.39820313 34.85640625 9.41015625 36.0703125 C9.40628906 37.19179688 9.40242187 38.31328125 9.3984375 39.46875 C9.39505371 40.48388672 9.39166992 41.49902344 9.38818359 42.54492188 C9.19603271 43.76018555 9.19603271 43.76018555 9 45 C5.96334765 47.0244349 5.36540532 47.25201497 1.95674133 47.2784729 C0.72629593 47.29521812 0.72629593 47.29521812 -0.52900696 47.31230164 C-1.87336067 47.31554192 -1.87336067 47.31554192 -3.24487305 47.31884766 C-4.19140747 47.32889328 -5.13794189 47.3389389 -6.11315918 47.34928894 C-9.24600611 47.38021307 -12.37876724 47.39718177 -15.51171875 47.4140625 C-17.68220259 47.43276672 -19.8526791 47.45233956 -22.02314758 47.4727478 C-27.73922411 47.52415381 -33.45532424 47.56373422 -39.17150879 47.60089111 C-45.00307086 47.64087769 -50.83453405 47.69199439 -56.66601562 47.7421875 C-68.11060771 47.83904706 -79.55525552 47.92341973 -91 48 C-91 48.99 -91 49.98 -91 51 C-90.34 51 -89.68 51 -89 51 C-88.67 51.99 -88.34 52.98 -88 54 C-91.16115776 52.63016497 -91.9927092 52.0109362 -94 49 C-94 47.68 -94 46.36 -94 45 C-60.67 45 -27.34 45 7 45 C6.67 34.77 6.34 24.54 6 14 C5.34 14 4.68 14 4 14 C3.505 10.04 3.505 10.04 3 6 C2.34 6 1.68 6 1 6 C0.505 3.03 0.505 3.03 0 0 Z " fill="#0D0114" transform="translate(991,515)"/>
<path d="M0 0 C5.38863532 -0.37317419 10.76966782 -0.64387903 16.16821289 -0.82397461 C17.99962315 -0.89905226 19.83014436 -1.0011745 21.65844727 -1.1315918 C36.4167786 -2.15731393 36.4167786 -2.15731393 40.68585205 1.40789795 C43.57309377 4.93069371 45.44457983 8.84192586 47.14553833 13.04293823 C48.03821632 15.08753079 49.11108486 16.9073856 50.28100586 18.80493164 C50.84827393 19.8593042 51.41554199 20.91367676 52 22 C51.505 23.485 51.505 23.485 51 25 C51 24.34 51 23.68 51 23 C50.34 23 49.68 23 49 23 C49 22.34 49 21.68 49 21 C48.34 21 47.68 21 47 21 C46.34 18.36 45.68 15.72 45 13 C44.34 13 43.68 13 43 13 C42.505 10.525 42.505 10.525 42 8 C41.34 8 40.68 8 40 8 C39.505 5.525 39.505 5.525 39 3 C20.685 2.505 20.685 2.505 2 2 C2.33 3.98 2.66 5.96 3 8 C3.66 8 4.32 8 5 8 C7.125 12.625 7.125 12.625 6 16 C5.54625 15.030625 5.0925 14.06125 4.625 13.0625 C3.34213779 9.92920418 3.34213779 9.92920418 1 9 C0.5859375 6.93359375 0.5859375 6.93359375 0.375 4.4375 C0.30023438 3.61121094 0.22546875 2.78492188 0.1484375 1.93359375 C0.09945313 1.29550781 0.05046875 0.65742188 0 0 Z " fill="#432D3E" transform="translate(299,441)"/>
<path d="M0 0 C0.96318983 2.67552729 0.9611807 4.25938441 0.53344727 7.11743164 C-0.04348193 11.31647285 -0.12670363 15.3301738 -0.09765625 19.55859375 C-0.0962413 20.34774673 -0.09482635 21.13689972 -0.09336853 21.94996643 C-0.08781555 24.44585115 -0.07527208 26.94164285 -0.0625 29.4375 C-0.05747891 31.13997265 -0.05291707 32.84244673 -0.04882812 34.54492188 C-0.03786158 38.69664988 -0.02062991 42.84830922 0 47 C-0.66 47 -1.32 47 -2 47 C-2.13277344 46.00097656 -2.26554688 45.00195312 -2.40234375 43.97265625 C-2.57894531 42.68230469 -2.75554688 41.39195312 -2.9375 40.0625 C-3.11152344 38.77472656 -3.28554688 37.48695313 -3.46484375 36.16015625 C-3.66162423 33.14533687 -3.66162423 33.14533687 -5 32 C-5.07271741 29.64686445 -5.08370868 27.29166332 -5.0625 24.9375 C-5.05347656 23.64714844 -5.04445313 22.35679687 -5.03515625 21.02734375 C-5.02355469 20.02832031 -5.01195312 19.02929688 -5 18 C-4.34 18 -3.68 18 -3 18 C-3.01160156 17.41992188 -3.02320313 16.83984375 -3.03515625 16.2421875 C-3.08762174 11.7001754 -2.91751063 7.47286431 -2 3 C-1.34 3 -0.68 3 0 3 C0 2.01 0 1.02 0 0 Z " fill="#211720" transform="translate(864,522)"/>
<path d="M0 0 C0.66 0 1.32 0 2 0 C2 1.32 2 2.64 2 4 C1.34 4 0.68 4 0 4 C-0.66 7.3 -1.32 10.6 -2 14 C-2.66 14 -3.32 14 -4 14 C-4 27.2 -4 40.4 -4 54 C-4.66 54 -5.32 54 -6 54 C-6.19916016 52.37191406 -6.19916016 52.37191406 -6.40234375 50.7109375 C-6.58066254 49.26561678 -6.75905169 47.82030474 -6.9375 46.375 C-7.02451172 45.66214844 -7.11152344 44.94929687 -7.20117188 44.21484375 C-7.60114348 40.9854434 -8.03637398 37.80344494 -8.62890625 34.6015625 C-9 32 -9 32 -8 30 C-7.68015422 27.45867993 -7.39334452 24.92168716 -7.125 22.375 C-6.45961481 16.49546221 -5.48562751 11.42318729 -3 6 C-2.34 6 -1.68 6 -1 6 C-0.67 4.02 -0.34 2.04 0 0 Z " fill="#201222" transform="translate(479,513)"/>
<path d="M0 0 C5.53588533 -0.02464775 11.071739 -0.04283496 16.60766602 -0.05493164 C18.4924373 -0.05997244 20.37720465 -0.06680498 22.26196289 -0.07543945 C24.96501636 -0.08751617 27.66801831 -0.09323068 30.37109375 -0.09765625 C31.21900986 -0.10281754 32.06692596 -0.10797882 32.9405365 -0.11329651 C34.96071068 -0.11349195 36.98077934 -0.06206211 39 0 C40 1 40 1 40.0625 3.5625 C40.041875 4.366875 40.02125 5.17125 40 6 C39.34 6 38.68 6 38 6 C38 4.68 38 3.36 38 2 C32.92719197 2.01939234 27.85612559 2.0710197 22.78393555 2.15258789 C21.05844614 2.17578911 19.3328147 2.19016862 17.60717773 2.19555664 C15.12653883 2.20483139 12.64814029 2.2457835 10.16796875 2.29296875 C9.39599655 2.2890361 8.62402435 2.28510345 7.82865906 2.28105164 C5.38630866 2.2926002 5.38630866 2.2926002 2 3 C0.06498657 5.42470189 0.06498657 5.42470189 -1 8 C-1.66 8 -2.32 8 -3 8 C-3.66 10.31 -4.32 12.62 -5 15 C-5.66 15 -6.32 15 -7 15 C-6.43697042 11.05879291 -5.3208055 8.2491277 -3 5 C-2.34 5 -1.68 5 -1 5 C-0.67 3.35 -0.34 1.7 0 0 Z " fill="#3F2B3C" transform="translate(460,441)"/>
<path d="M0 0 C0.33 0 0.66 0 1 0 C0.67 4.29 0.34 8.58 0 13 C-0.66 13 -1.32 13 -2 13 C-1.88926332 16.68807156 -1.75884028 20.37520029 -1.625 24.0625 C-1.5940625 25.10083984 -1.563125 26.13917969 -1.53125 27.20898438 C-1.316745 32.83974074 -0.74565014 37.65042701 1 43 C1.125 46.4375 1.125 46.4375 1 49 C0.34 49 -0.32 49 -1 49 C-1.33 45.37 -1.66 41.74 -2 38 C-2.66 38 -3.32 38 -4 38 C-4.05840224 33.81255925 -4.09373166 29.62522435 -4.125 25.4375 C-4.14175781 24.25607422 -4.15851562 23.07464844 -4.17578125 21.85742188 C-4.22198973 13.60920783 -3.22202945 7.5947837 0 0 Z " fill="#322230" transform="translate(725,523)"/>
<path d="M0 0 C0.66 0 1.32 0 2 0 C2.61271465 1.28763384 3.21450519 2.58046443 3.8125 3.875 C4.14894531 4.59429688 4.48539063 5.31359375 4.83203125 6.0546875 C8.42987398 15.12750829 9.40005802 22.84733096 9.1875 32.625 C9.17396484 33.81996094 9.16042969 35.01492188 9.14648438 36.24609375 C9.11146292 39.164548 9.06234993 42.08202348 9 45 C7.68 45.66 6.36 46.32 5 47 C5 46.34 5 45.68 5 45 C5.66 45 6.32 45 7 45 C6.67 34.77 6.34 24.54 6 14 C5.34 14 4.68 14 4 14 C3.67 11.36 3.34 8.72 3 6 C2.34 6 1.68 6 1 6 C0.67 4.02 0.34 2.04 0 0 Z " fill="#241423" transform="translate(991,515)"/>
<path d="M0 0 C0.33 0 0.66 0 1 0 C1.33 6.27 1.66 12.54 2 19 C2.66 18.01 3.32 17.02 4 16 C4.66 16 5.32 16 6 16 C6.061875 15.401875 6.12375 14.80375 6.1875 14.1875 C7.32282895 11.13084514 9.21152775 10.53365974 12 9 C12.33 8.34 12.66 7.68 13 7 C13.66 7 14.32 7 15 7 C14.47893443 11.07547718 12.41533328 12.86650427 9.5 15.625 C6.33306837 18.50277024 6.33306837 18.50277024 4 22 C3.34 22 2.68 22 2 22 C1.67 24.31 1.34 26.62 1 29 C0.34 29 -0.32 29 -1 29 C-0.67 19.43 -0.34 9.86 0 0 Z " fill="#190B1B" transform="translate(664,487)"/>
<path d="M0 0 C2.85005166 1.12274762 5.64753265 2.29433302 8.4375 3.5625 C18.83524014 7.75807935 31.36075332 6.98645521 42 4 C42 4.66 42 5.32 42 6 C41.01 6 40.02 6 39 6 C39 6.66 39 7.32 39 8 C34.31026876 8.92329084 29.76403185 9.15186484 25 9.125 C24.31421875 9.12886719 23.6284375 9.13273438 22.921875 9.13671875 C18.84373191 9.12893603 15.00022885 8.78754506 11 8 C11 7.34 11 6.68 11 6 C8.69 5.67 6.38 5.34 4 5 C4 4.34 4 3.68 4 3 C2.68 2.67 1.36 2.34 0 2 C0 1.34 0 0.68 0 0 Z " fill="#201423" transform="translate(520,575)"/>
<path d="M0 0 C0.66 0 1.32 0 2 0 C1.67 1.98 1.34 3.96 1 6 C0.34 6 -0.32 6 -1 6 C-1.33 7.65 -1.66 9.3 -2 11 C-2.66 11 -3.32 11 -4 11 C-4.33 12.65 -4.66 14.3 -5 16 C-5.66 16 -6.32 16 -7 16 C-7.33 17.65 -7.66 19.3 -8 21 C-8.66 21 -9.32 21 -10 21 C-10.103125 21.721875 -10.20625 22.44375 -10.3125 23.1875 C-11.45557883 27.86373158 -13.61779683 30.61779683 -17 34 C-16.34 31.03 -15.68 28.06 -15 25 C-14.34 25 -13.68 25 -13 25 C-12.67 23.35 -12.34 21.7 -12 20 C-11.34 20 -10.68 20 -10 20 C-9.8453125 18.9171875 -9.8453125 18.9171875 -9.6875 17.8125 C-8.93206053 14.72206579 -7.84468685 12.58256159 -6 10 C-5.34 10 -4.68 10 -4 10 C-3.87625 9.030625 -3.7525 8.06125 -3.625 7.0625 C-3.41875 6.051875 -3.2125 5.04125 -3 4 C-2.34 3.67 -1.68 3.34 -1 3 C-0.67 2.01 -0.34 1.02 0 0 Z " fill="#231626" transform="translate(452,523)"/>
<path d="M0 0 C0.66 0 1.32 0 2 0 C1.67 1.65 1.34 3.3 1 5 C21.79 5 42.58 5 64 5 C64 4.34 64 3.68 64 3 C64.66 3 65.32 3 66 3 C66 4.32 66 5.64 66 7 C32.835 6.505 32.835 6.505 -1 6 C-1 1 -1 1 0 0 Z " fill="#130719" transform="translate(898,529)"/>
<path d="M0 0 C0.66 0 1.32 0 2 0 C2.33 1.32 2.66 2.64 3 4 C3.66 4 4.32 4 5 4 C5.33 5.98 5.66 7.96 6 10 C6.66 10 7.32 10 8 10 C8.33 11.32 8.66 12.64 9 14 C9.66 14 10.32 14 11 14 C11.33 15.98 11.66 17.96 12 20 C12.66 20 13.32 20 14 20 C16.125 24.625 16.125 24.625 15 28 C14.34 27.67 13.68 27.34 13 27 C12.375 23.9375 12.375 23.9375 12 21 C11.34 21 10.68 21 10 21 C6 14.375 6 14.375 6 11 C5.34 11 4.68 11 4 11 C3.32591692 9.73308493 2.66099503 8.46129251 2 7.1875 C1.62875 6.47980469 1.2575 5.77210938 0.875 5.04296875 C0 3 0 3 0 0 Z " fill="#2A1C29" transform="translate(312,467)"/>
<path d="M0 0 C0.66 0 1.32 0 2 0 C2.3125 3.25 2.3125 3.25 2 7 C-0.375 9.1875 -0.375 9.1875 -3 11 C-4.31165257 13.11660427 -4.31165257 13.11660427 -5 15 C-5.66 15 -6.32 15 -7 15 C-7.0825 15.845625 -7.165 16.69125 -7.25 17.5625 C-8.15733853 21.72113491 -9.76541273 24.39582699 -12 28 C-12.66 28 -13.32 28 -14 28 C-13.39733215 23.49272353 -11.63400206 20.1412037 -9.4375 16.1875 C-8.9434668 15.2912793 -8.9434668 15.2912793 -8.43945312 14.37695312 C-7.63226733 12.91466002 -6.81695083 11.4568601 -6 10 C-5.34 10 -4.68 10 -4 10 C-3.67 8.02 -3.34 6.04 -3 4 C-2.34 4 -1.68 4 -1 4 C-0.67 2.68 -0.34 1.36 0 0 Z " fill="#2E1E2B" transform="translate(137,462)"/>
<path d="M0 0 C0.66 0 1.32 0 2 0 C2.04241723 2.33294775 2.04092937 4.66702567 2 7 C1.67 7.33 1.34 7.66 1 8 C0.87677242 9.77903357 0.82210981 11.56286203 0.79467773 13.34594727 C0.77473251 14.4870546 0.75478729 15.62816193 0.73423767 16.80384827 C0.71752518 18.0454924 0.70081268 19.28713654 0.68359375 20.56640625 C0.66281265 21.83016586 0.64203156 23.09392548 0.62062073 24.39598083 C0.56616286 27.76118633 0.5159572 31.12640173 0.46777344 34.49169922 C0.41760241 37.92355901 0.36189345 41.35532831 0.30664062 44.78710938 C0.19929809 51.52466761 0.09755675 58.26229336 0 65 C-0.33 65 -0.66 65 -1 65 C-1.02319817 57.26333281 -1.04095318 49.52666924 -1.05181217 41.78997517 C-1.05702465 38.19729189 -1.06409257 34.60463245 -1.07543945 31.01196289 C-1.08632649 27.54307509 -1.09228916 24.07421019 -1.09487724 20.60530663 C-1.09761664 18.64167398 -1.10541944 16.67805052 -1.11329651 14.71443176 C-1.11337204 13.5135643 -1.11344757 12.31269684 -1.11352539 11.07543945 C-1.115746 10.02064896 -1.11796661 8.96585846 -1.12025452 7.87910461 C-1.00599485 5.14352713 -0.61892382 2.66237066 0 0 Z " fill="#1D111C" transform="translate(665,545)"/>
<path d="M0 0 C0.66 0.66 1.32 1.32 2 2 C-10.21 2 -22.42 2 -35 2 C-35 1.34 -35 0.68 -35 0 C-23.67141039 -1.64779485 -11.30344614 -1.98306073 0 0 Z " fill="#271928" transform="translate(558,482)"/>
<path d="M0 0 C1.02480469 0.00322266 2.04960938 0.00644531 3.10546875 0.00976562 C4.16894531 0.01814453 5.23242188 0.02652344 6.328125 0.03515625 C7.40707031 0.03966797 8.48601563 0.04417969 9.59765625 0.04882812 C12.25786883 0.06059898 14.91796865 0.07704226 17.578125 0.09765625 C17.578125 0.75765625 17.578125 1.41765625 17.578125 2.09765625 C8.998125 2.42765625 0.418125 2.75765625 -8.421875 3.09765625 C-8.421875 3.75765625 -8.421875 4.41765625 -8.421875 5.09765625 C-10.401875 5.42765625 -12.381875 5.75765625 -14.421875 6.09765625 C-14.421875 5.43765625 -14.421875 4.77765625 -14.421875 4.09765625 C-12.771875 3.76765625 -11.121875 3.43765625 -9.421875 3.09765625 C-9.421875 2.43765625 -9.421875 1.77765625 -9.421875 1.09765625 C-6.21405414 0.14389058 -3.34000104 -0.01855556 0 0 Z " fill="#2C1A36" transform="translate(694.421875,519.90234375)"/>
<path d="M0 0 C0.53625 0.28875 1.0725 0.5775 1.625 0.875 C4.35280484 2.16711808 7.12612718 3.08558592 10 4 C10 4.66 10 5.32 10 6 C16.6 6.33 23.2 6.66 30 7 C30 7.66 30 8.32 30 9 C27.4374282 9.02710123 24.87514635 9.04688771 22.3125 9.0625 C21.2306543 9.07506836 21.2306543 9.07506836 20.12695312 9.08789062 C16.28444618 9.10543632 12.73360474 8.93524221 9 8 C9 7.34 9 6.68 9 6 C6.03 5.505 6.03 5.505 3 5 C3 4.34 3 3.68 3 3 C2.34 3 1.68 3 1 3 C0.67 2.01 0.34 1.02 0 0 Z " fill="#241726" transform="translate(768,575)"/>
<path d="M0 0 C0.66 0 1.32 0 2 0 C2.33 1.98 2.66 3.96 3 6 C3.66 6 4.32 6 5 6 C7.60838688 13.53404602 9.54249536 19.99819339 9 28 C6.51156401 23.57611379 5.30011488 18.67674797 3.85546875 13.84375 C3.00384985 11.04333446 2.18445295 8.35893548 0.84375 5.75 C0 4 0 4 0 0 Z " fill="#251624" transform="translate(602,513)"/>
<path d="M0 0 C2.475 0.495 2.475 0.495 5 1 C5 1.66 5 2.32 5 3 C5.72574219 3.24878906 6.45148437 3.49757813 7.19921875 3.75390625 C10.26119699 5.11620898 12.31516662 6.71350659 14.8125 8.9375 C15.60269531 9.62714844 16.39289062 10.31679688 17.20703125 11.02734375 C19 13 19 13 19 16 C19.99 16.33 20.98 16.66 22 17 C22 17.66 22 18.32 22 19 C18.87624531 17.64389915 17.0689031 16.20543984 14.9375 13.5625 C11.21311827 8.78507996 11.21311827 8.78507996 6 6 C6 5.34 6 4.68 6 4 C4.02 3.34 2.04 2.68 0 2 C0 1.34 0 0.68 0 0 Z " fill="#251826" transform="translate(966,490)"/>
<path d="M0 0 C0 0.66 0 1.32 0 2 C-6.98165821 5.14859096 -12.59220953 6.1521906 -20.3125 6.0625 C-21.05306641 6.05798828 -21.79363281 6.05347656 -22.55664062 6.04882812 C-24.37112899 6.03712175 -26.18557534 6.01918898 -28 6 C-28 5.34 -28 4.68 -28 4 C-17.605 3.505 -17.605 3.505 -7 3 C-7 2.34 -7 1.68 -7 1 C-2.25 0 -2.25 0 0 0 Z " fill="#180D1E" transform="translate(954,578)"/>
<path d="M0 0 C0.66 0.33 1.32 0.66 2 1 C0.1875 3.5 0.1875 3.5 -2 6 C-2.99 6 -3.98 6 -5 6 C-5.66 7.65 -6.32 9.3 -7 11 C-7.66 11 -8.32 11 -9 11 C-9 11.66 -9 12.32 -9 13 C-9.66 13 -10.32 13 -11 13 C-11.33 13.99 -11.66 14.98 -12 16 C-12.66 16 -13.32 16 -14 16 C-13.67 14.35 -13.34 12.7 -13 11 C-12.01 10.67 -11.02 10.34 -10 10 C-9.67 9.01 -9.34 8.02 -9 7 C-8.34 7 -7.68 7 -7 7 C-6.67 6.01 -6.34 5.02 -6 4 C-4.04402816 2.60287726 -2.04563599 1.26220093 0 0 Z " fill="#2D1E2C" transform="translate(498,493)"/>
<path d="M0 0 C1.53617912 4.09647766 0.69045256 7.78823937 0 12 C-0.33 12.33 -0.66 12.66 -1 13 C-1.16666667 15.5 -1.16666667 15.5 -1 18 C-0.67 18.33 -0.34 18.66 0 19 C0.14115161 21.67058851 0.04247107 24.32432238 0 27 C-0.66 27 -1.32 27 -2 27 C-2.90777093 23.13116676 -3.13435263 19.53269271 -3.125 15.5625 C-3.12886719 13.92474609 -3.12886719 13.92474609 -3.1328125 12.25390625 C-3.00359489 9.08807476 -2.59097317 6.10964455 -2 3 C-1.34 3 -0.68 3 0 3 C0 2.01 0 1.02 0 0 Z " fill="#261A25" transform="translate(758,532)"/>
<path d="M0 0 C1.78125 0.1484375 1.78125 0.1484375 4 1 C5.78125 3.4765625 5.78125 3.4765625 7.5 6.625 C8.3971875 8.25115234 8.3971875 8.25115234 9.3125 9.91015625 C9.869375 10.92980469 10.42625 11.94945312 11 13 C11.83017298 14.35610642 12.66277744 15.71073441 13.5 17.0625 C13.995 18.031875 14.49 19.00125 15 20 C14.67 20.99 14.34 21.98 14 23 C14 22.34 14 21.68 14 21 C13.34 21 12.68 21 12 21 C12 20.34 12 19.68 12 19 C11.34 19 10.68 19 10 19 C9.34 16.36 8.68 13.72 8 11 C7.34 11 6.68 11 6 11 C5.67 9.35 5.34 7.7 5 6 C4.34 6 3.68 6 3 6 C2.87625 5.195625 2.7525 4.39125 2.625 3.5625 C2.315625 2.2940625 2.315625 2.2940625 2 1 C1.34 0.67 0.68 0.34 0 0 Z " fill="#2C1826" transform="translate(336,443)"/>
<path d="M0 0 C0.66 0 1.32 0 2 0 C2 1.32 2 2.64 2 4 C1.34 4 0.68 4 0 4 C-0.66 7.3 -1.32 10.6 -2 14 C-2.66 14 -3.32 14 -4 14 C-3.95875 14.886875 -3.9175 15.77375 -3.875 16.6875 C-3.99897246 19.97277013 -4.61387904 22.05449295 -6 25 C-6.33 25 -6.66 25 -7 25 C-6.63176001 18.09232563 -5.76081837 12.3618858 -3 6 C-2.34 6 -1.68 6 -1 6 C-0.67 4.02 -0.34 2.04 0 0 Z " fill="#342332" transform="translate(479,513)"/>
<path d="M0 0 C3.46813203 6.93626406 3.99889486 15.44703299 2 23 C1.01 23.66 0.02 24.32 -1 25 C-0.67 16.75 -0.34 8.5 0 0 Z " fill="#1C111B" transform="translate(609,537)"/>
<path d="M0 0 C1.65 0 3.3 0 5 0 C5.84114171 1.43294498 6.67265687 2.87154405 7.5 4.3125 C7.9640625 5.11300781 8.428125 5.91351563 8.90625 6.73828125 C10 9 10 9 10 12 C10.66 12 11.32 12 12 12 C12.33 13.98 12.66 15.96 13 18 C12.34 18 11.68 18 11 18 C8.69559987 13.70543612 7.21815438 9.68520915 6 5 C5.34 5 4.68 5 4 5 C4 4.01 4 3.02 4 2 C2.35 2.33 0.7 2.66 -1 3 C-0.67 2.01 -0.34 1.02 0 0 Z " fill="#231524" transform="translate(159,425)"/>
<path d="M0 0 C0.66 0 1.32 0 2 0 C2.33 1.65 2.66 3.3 3 5 C3.66 5 4.32 5 5 5 C5.33 6.32 5.66 7.64 6 9 C6.66 9 7.32 9 8 9 C8.33 10.65 8.66 12.3 9 14 C9.66 14 10.32 14 11 14 C11.33 15.98 11.66 17.96 12 20 C11.34 20 10.68 20 10 20 C9.67 18.35 9.34 16.7 9 15 C8.34 15 7.68 15 7 15 C6.67 13.35 6.34 11.7 6 10 C5.34 10 4.68 10 4 10 C0 3.375 0 3.375 0 0 Z " fill="#261828" transform="translate(356,544)"/>
<path d="M0 0 C0.66 0 1.32 0 2 0 C1.25531915 7.74468085 1.25531915 7.74468085 -2 11 C-2.66 11 -3.32 11 -4 11 C-4.33 12.32 -4.66 13.64 -5 15 C-5.66 15 -6.32 15 -7 15 C-6.67 13.35 -6.34 11.7 -6 10 C-5.34 10 -4.68 10 -4 10 C-3.67 8.02 -3.34 6.04 -3 4 C-2.34 4 -1.68 4 -1 4 C-0.67 2.68 -0.34 1.36 0 0 Z " fill="#2D1E2B" transform="translate(413,522)"/>
<path d="M0 0 C0.66 0 1.32 0 2 0 C1.67 1.98 1.34 3.96 1 6 C0.34 6 -0.32 6 -1 6 C-1.33 7.65 -1.66 9.3 -2 11 C-2.66 11 -3.32 11 -4 11 C-4 11.66 -4 12.32 -4 13 C-4.66 13 -5.32 13 -6 13 C-6.33 11.68 -6.66 10.36 -7 9 C-7.66 9 -8.32 9 -9 9 C-9.33 7.02 -9.66 5.04 -10 3 C-8 4.8125 -8 4.8125 -6 7 C-6 7.99 -6 8.98 -6 10 C-5.34 10 -4.68 10 -4 10 C-3.71125 9.0925 -3.4225 8.185 -3.125 7.25 C-2.23468224 4.67797092 -1.28505587 2.38653234 0 0 Z " fill="#311C30" transform="translate(404,537)"/>
<path d="M0 0 C0.33 0 0.66 0 1 0 C1.03758423 0.83978394 1.03758423 0.83978394 1.07592773 1.6965332 C1.19203745 4.23541305 1.3146958 6.77393553 1.4375 9.3125 C1.47681641 10.19357422 1.51613281 11.07464844 1.55664062 11.98242188 C1.59853516 12.82998047 1.64042969 13.67753906 1.68359375 14.55078125 C1.73858032 15.72120972 1.73858032 15.72120972 1.79467773 16.9152832 C1.94125263 19.19329101 1.94125263 19.19329101 3 22 C2.40206327 24.35188447 1.74118205 26.68925595 1 29 C0.34 29 -0.32 29 -1 29 C-0.67 19.43 -0.34 9.86 0 0 Z " fill="#261725" transform="translate(664,487)"/>
<path d="M0 0 C0 0.66 0 1.32 0 2 C0.78375 2.0825 1.5675 2.165 2.375 2.25 C5 3 5 3 6.3125 5.0625 C6.6528125 6.0215625 6.6528125 6.0215625 7 7 C6.34 7 5.68 7 5 7 C5 6.34 5 5.68 5 5 C3.41773035 4.80372609 1.83410729 4.61834462 0.25 4.4375 C-0.63171875 4.33308594 -1.5134375 4.22867188 -2.421875 4.12109375 C-4.88432451 4.00543324 -6.66538064 4.26361305 -9 5 C-9 3 -9 3 -7.875 1.375 C-5.24112056 -0.55651159 -3.18083044 -0.21205536 0 0 Z " fill="#191021" transform="translate(579,570)"/>
<path d="M0 0 C0.66 0 1.32 0 2 0 C1.67 1.65 1.34 3.3 1 5 C0.34 5 -0.32 5 -1 5 C-1.103125 5.721875 -1.20625 6.44375 -1.3125 7.1875 C-2.06793947 10.27793421 -3.15531315 12.41743841 -5 15 C-5.66 15 -6.32 15 -7 15 C-6.49357808 10.64477147 -5.61588503 7.55760365 -3 4 C-2.34 4 -1.68 4 -1 4 C-0.67 2.68 -0.34 1.36 0 0 Z " fill="#211523" transform="translate(427,567)"/>
<path d="M0 0 C1.25541557 3.76624671 0.37061958 5.37188934 -1 9 C-1.66 9 -2.32 9 -3 9 C-3 9.66 -3 10.32 -3 11 C-3.66 11 -4.32 11 -5 11 C-5.33 12.98 -5.66 14.96 -6 17 C-6.99 17.33 -7.98 17.66 -9 18 C-8.67 16.35 -8.34 14.7 -8 13 C-7.34 13 -6.68 13 -6 13 C-5.855625 12.401875 -5.71125 11.80375 -5.5625 11.1875 C-5.1127561 9.43849596 -4.57107659 7.71322977 -4 6 C-3.34 6 -2.68 6 -2 6 C-1.855625 5.195625 -1.71125 4.39125 -1.5625 3.5625 C-1 1 -1 1 0 0 Z " fill="#261722" transform="translate(63,591)"/>
<path d="M0 0 C0.66 0 1.32 0 2 0 C2.33 1.65 2.66 3.3 3 5 C3.66 5 4.32 5 5 5 C5.33 6.65 5.66 8.3 6 10 C6.66 10 7.32 10 8 10 C8.33 11.65 8.66 13.3 9 15 C5.24972838 13.74990946 4.79331273 12.52798171 2.8125 9.1875 C2.28269531 8.31480469 1.75289063 7.44210937 1.20703125 6.54296875 C0 4 0 4 0 0 Z " fill="#261723" transform="translate(351,466)"/>
<path d="M0 0 C0 0.99 0 1.98 0 3 C-0.66 3 -1.32 3 -2 3 C-2.4021875 4.5778125 -2.4021875 4.5778125 -2.8125 6.1875 C-3.87252219 9.59072912 -4.91388304 12.13158918 -7 15 C-7.66 15 -8.32 15 -9 15 C-8.67 13.35 -8.34 11.7 -8 10 C-7.34 10 -6.68 10 -6 10 C-5.87882812 9.36191406 -5.75765625 8.72382813 -5.6328125 8.06640625 C-5.46523438 7.24011719 -5.29765625 6.41382813 -5.125 5.5625 C-4.96257812 4.73878906 -4.80015625 3.91507812 -4.6328125 3.06640625 C-4.42398437 2.38449219 -4.21515625 1.70257813 -4 1 C-2 0 -2 0 0 0 Z " fill="#2C1F2F" transform="translate(485,470)"/>
<path d="M0 0 C1.98 0 3.96 0 6 0 C6 0.66 6 1.32 6 2 C7.32 2.33 8.64 2.66 10 3 C10 3.66 10 4.32 10 5 C9.39671875 4.91621094 8.7934375 4.83242188 8.171875 4.74609375 C6.97304688 4.59333984 6.97304688 4.59333984 5.75 4.4375 C4.96109375 4.33308594 4.1721875 4.22867188 3.359375 4.12109375 C0.99467126 3.99972651 -0.7511037 4.30366743 -3 5 C-2.67 4.01 -2.34 3.02 -2 2 C-1.34 2 -0.68 2 0 2 C0 1.34 0 0.68 0 0 Z " fill="#160D20" transform="translate(962,570)"/>
<path d="M0 0 C0.66 0 1.32 0 2 0 C1.67 1.98 1.34 3.96 1 6 C0.34 6 -0.32 6 -1 6 C-1.28875 6.7425 -1.5775 7.485 -1.875 8.25 C-2.82302644 10.56739797 -3.84845911 12.77917115 -5 15 C-5.66 15 -6.32 15 -7 15 C-6.67 13.35 -6.34 11.7 -6 10 C-5.34 10 -4.68 10 -4 10 C-3.896875 9.278125 -3.79375 8.55625 -3.6875 7.8125 C-2.93206053 4.72206579 -1.84468685 2.58256159 0 0 Z " fill="#372634" transform="translate(429,494)"/>
<path d="M0 0 C0.66 0 1.32 0 2 0 C2.33 2.31 2.66 4.62 3 7 C3.66 7 4.32 7 5 7 C5.66 9.97 6.32 12.94 7 16 C6.67 15.34 6.34 14.68 6 14 C5.34 14 4.68 14 4 14 C3.67 12.02 3.34 10.04 3 8 C2.34 8 1.68 8 1 8 C0.67 5.36 0.34 2.72 0 0 Z " fill="#231424" transform="translate(475,567)"/>
<path d="M0 0 C0.99 0.33 1.98 0.66 3 1 C2.071875 1.763125 1.14375 2.52625 0.1875 3.3125 C-4.35318619 6.9546366 -4.35318619 6.9546366 -7 12 C-7.66 12 -8.32 12 -9 12 C-8.67 10.35 -8.34 8.7 -8 7 C-7.34 7 -6.68 7 -6 7 C-5.67 5.68 -5.34 4.36 -5 3 C-4.01 3 -3.02 3 -2 3 C-2 2.34 -2 1.68 -2 1 C-1.34 0.67 -0.68 0.34 0 0 Z " fill="#201226" transform="translate(520,517)"/>
<path d="M0 0 C1.32 0.33 2.64 0.66 4 1 C4.33 2.65 4.66 4.3 5 6 C5.66 6 6.32 6 7 6 C7.33 7.98 7.66 9.96 8 12 C7.01 11.67 6.02 11.34 5 11 C5 10.01 5 9.02 5 8 C4.34 8 3.68 8 3 8 C2.67 6.02 2.34 4.04 2 2 C1.34 2 0.68 2 0 2 C0 1.34 0 0.68 0 0 Z " fill="#2F1E30" transform="translate(338,514)"/>
<path d="M0 0 C0.66 0.99 1.32 1.98 2 3 C1.34 3 0.68 3 0 3 C-0.1546875 4.36125 -0.1546875 4.36125 -0.3125 5.75 C-1.00649813 9.03071844 -1.70085668 10.60889095 -4 13 C-4.66 13 -5.32 13 -6 13 C-5.67 11.02 -5.34 9.04 -5 7 C-4.34 7 -3.68 7 -3 7 C-2.67 5.35 -2.34 3.7 -2 2 C-1.34 2 -0.68 2 0 2 C0 1.34 0 0.68 0 0 Z " fill="#2A1626" transform="translate(145,449)"/>
<path d="M0 0 C-4.07523049 3.42319361 -8.57062751 5.84493367 -13.9375 6.1875 C-14.9584375 6.0946875 -14.9584375 6.0946875 -16 6 C-16 5.34 -16 4.68 -16 4 C-12.535 3.505 -12.535 3.505 -9 3 C-9 2.34 -9 1.68 -9 1 C-5.92677456 0.08941469 -3.19902639 -0.08886184 0 0 Z " fill="#2A1C2D" transform="translate(522,484)"/>
<path d="M0 0 C0.66 0 1.32 0 2 0 C2.33 1.32 2.66 2.64 3 4 C3.66 4 4.32 4 5 4 C5.33 5.98 5.66 7.96 6 10 C6.66 10 7.32 10 8 10 C8.33 10.99 8.66 11.98 9 13 C6.14059964 12.3645777 4.44177401 11.65348679 2.77734375 9.19140625 C1.10621088 5.92700692 0 3.71683985 0 0 Z " fill="#231423" transform="translate(312,467)"/>
<path d="M0 0 C0.66 0 1.32 0 2 0 C2.33 2.97 2.66 5.94 3 9 C0.03 9 -2.94 9 -6 9 C-5.67 8.34 -5.34 7.68 -5 7 C-3.02 7 -1.04 7 1 7 C0.67 4.69 0.34 2.38 0 0 Z " fill="#1A0C19" transform="translate(291,648)"/>
<path d="M0 0 C0.66 0 1.32 0 2 0 C2.33 1.98 2.66 3.96 3 6 C3.99 6.33 4.98 6.66 6 7 C9 12.22222222 9 12.22222222 9 15 C8.01 14.67 7.02 14.34 6 14 C5.9175 13.05125 5.835 12.1025 5.75 11.125 C5.5025 10.09375 5.255 9.0625 5 8 C4.34 7.67 3.68 7.34 3 7 C2.34 6.67 1.68 6.34 1 6 C0.25 2.875 0.25 2.875 0 0 Z " fill="#251824" transform="translate(175,447)"/>
<path d="M0 0 C0.99 0.33 1.98 0.66 3 1 C1.625 3.5 1.625 3.5 0 6 C-0.66 6 -1.32 6 -2 6 C-2.66 8.31 -3.32 10.62 -4 13 C-4.66 13 -5.32 13 -6 13 C-5.43697042 9.05879291 -4.3208055 6.2491277 -2 3 C-1.34 3 -0.68 3 0 3 C0 2.01 0 1.02 0 0 Z " fill="#2A1B29" transform="translate(459,443)"/>
<path d="M0 0 C1.32 0.33 2.64 0.66 4 1 C4 1.66 4 2.32 4 3 C4.9075 3.28875 5.815 3.5775 6.75 3.875 C9.32202908 4.76531776 11.61346766 5.71494413 14 7 C14 7.66 14 8.32 14 9 C12.35 8.67 10.7 8.34 9 8 C9 7.34 9 6.68 9 6 C8.2575 5.896875 7.515 5.79375 6.75 5.6875 C3.8026481 4.95066203 2.21616926 4.05200858 0 2 C0 1.34 0 0.68 0 0 Z " fill="#1B0C1D" transform="translate(497,598)"/>
<path d="M0 0 C0.66 0 1.32 0 2 0 C2.04241723 2.33294775 2.04092937 4.66702567 2 7 C1.67 7.33 1.34 7.66 1 8 C0.76572222 10.01594582 0.58663876 12.038474 0.4375 14.0625 C0.35371094 15.16722656 0.26992188 16.27195312 0.18359375 17.41015625 C0.12300781 18.26480469 0.06242188 19.11945312 0 20 C-0.33 20 -0.66 20 -1 20 C-1.02712351 17.60408962 -1.0468982 15.20849043 -1.0625 12.8125 C-1.07087891 12.13896484 -1.07925781 11.46542969 -1.08789062 10.77148438 C-1.10606538 7.04565869 -0.89299392 3.6211958 0 0 Z " fill="#261A29" transform="translate(665,545)"/>
<path d="M0 0 C0.99 0.33 1.98 0.66 3 1 C2.67 1.66 2.34 2.32 2 3 C1.01 3 0.02 3 -1 3 C-1 3.66 -1 4.32 -1 5 C-1.99 5.33 -2.98 5.66 -4 6 C-2.25 1.125 -2.25 1.125 0 0 Z M-6 6 C-5.34 6.33 -4.68 6.66 -4 7 C-4.99 7.66 -5.98 8.32 -7 9 C-6.67 8.01 -6.34 7.02 -6 6 Z M-10 9 C-9.01 9.33 -8.02 9.66 -7 10 C-8.98 10.99 -8.98 10.99 -11 12 C-10.67 11.01 -10.34 10.02 -10 9 Z " fill="#190F1A" transform="translate(503,490)"/>
<path d="M0 0 C0 0.66 0 1.32 0 2 C-1.86328125 3.47265625 -1.86328125 3.47265625 -4.3125 5.0625 C-5.11300781 5.58972656 -5.91351562 6.11695313 -6.73828125 6.66015625 C-9 8 -9 8 -12 9 C-10.5993784 5.498446 -9.37735911 4.53516323 -6 3 C-5.2265625 2.195625 -5.2265625 2.195625 -4.4375 1.375 C-3 0 -3 0 0 0 Z " fill="#1C101E" transform="translate(598,595)"/>
<path d="M0 0 C0.66 0 1.32 0 2 0 C2.33 1.98 2.66 3.96 3 6 C3.66 6 4.32 6 5 6 C7.125 10.625 7.125 10.625 6 14 C5.54625 13.030625 5.0925 12.06125 4.625 11.0625 C3.34213779 7.92920418 3.34213779 7.92920418 1 7 C0.59270772 4.67843403 0.25561323 2.3431213 0 0 Z " fill="#211328" transform="translate(299,443)"/>
<path d="M0 0 C1.37432457 3.81756824 0.67975039 7.07255329 0 11 C-0.66 11 -1.32 11 -2 11 C-2 12.98 -2 14.96 -2 17 C-2.33 17 -2.66 17 -3 17 C-3.08333357 12.1666528 -2.95261487 7.76307437 -2 3 C-1.34 3 -0.68 3 0 3 C0 2.01 0 1.02 0 0 Z " fill="#352534" transform="translate(864,522)"/>
<path d="M0 0 C2.7343066 2.7343066 2.95340665 4.76993555 3.09765625 8.578125 C3.08605469 9.45984375 3.07445312 10.3415625 3.0625 11.25 C3.05347656 12.14203125 3.04445313 13.0340625 3.03515625 13.953125 C3.02355469 14.62859375 3.01195312 15.3040625 3 16 C0.65229357 12.47844036 0.62330386 10.49228157 0.375 6.3125 C0.30023437 5.13300781 0.22546875 3.95351563 0.1484375 2.73828125 C0.09945312 1.83464844 0.05046875 0.93101562 0 0 Z " fill="#2E202E" transform="translate(997,528)"/>
<path d="M0 0 C3 1 3 1 4.6875 3.875 C6 7 6 7 6 10 C5.34 10 4.68 10 4 10 C4 9.34 4 8.68 4 8 C3.34 8 2.68 8 2 8 C0.74335022 5.09399739 0 3.20395416 0 0 Z " fill="#261D29" transform="translate(385,525)"/>
<path d="M0 0 C0 0.66 0 1.32 0 2 C-1.98 2.33 -3.96 2.66 -6 3 C-6 3.66 -6 4.32 -6 5 C-7.98 5.33 -9.96 5.66 -12 6 C-12 5.34 -12 4.68 -12 4 C-10.35 3.67 -8.7 3.34 -7 3 C-7 2.34 -7 1.68 -7 1 C-4.50935112 0.31292445 -2.62113708 0 0 0 Z " fill="#1E0F23" transform="translate(692,520)"/>
<path d="M0 0 C0.99 0.33 1.98 0.66 3 1 C3 1.99 3 2.98 3 4 C3.66 4 4.32 4 5 4 C5.66 6.64 6.32 9.28 7 12 C5 10.1875 5 10.1875 3 8 C3 7.01 3 6.02 3 5 C2.34 5 1.68 5 1 5 C0.67 3.35 0.34 1.7 0 0 Z " fill="#311E30" transform="translate(331,501)"/>
<path d="M0 0 C0.66 0 1.32 0 2 0 C1.67 1.98 1.34 3.96 1 6 C0.34 6 -0.32 6 -1 6 C-1.33 7.65 -1.66 9.3 -2 11 C-2.66 11 -3.32 11 -4 11 C-3.67 8.69 -3.34 6.38 -3 4 C-2.34 4 -1.68 4 -1 4 C-0.67 2.68 -0.34 1.36 0 0 Z " fill="#271629" transform="translate(468,495)"/>
<path d="M0 0 C0.66 0 1.32 0 2 0 C1.67 1.65 1.34 3.3 1 5 C0.34 5 -0.32 5 -1 5 C-1.103125 5.763125 -1.20625 6.52625 -1.3125 7.3125 C-2 10 -2 10 -5 13 C-4.34 10.03 -3.68 7.06 -3 4 C-2.34 4 -1.68 4 -1 4 C-0.67 2.68 -0.34 1.36 0 0 Z " fill="#251929" transform="translate(490,457)"/>
<path d="M0 0 C0.99 0.495 0.99 0.495 2 1 C3.41904116 5.54093172 3.09226843 10.2943099 3 15 C0.25217311 9.68753468 -0.09669018 5.89810092 0 0 Z " fill="#331E31" transform="translate(608,526)"/>
<path d="M0 0 C0.66 0 1.32 0 2 0 C2.33 1.65 2.66 3.3 3 5 C3.66 5 4.32 5 5 5 C5.33 6.98 5.66 8.96 6 11 C5.34 11 4.68 11 4 11 C2.95107762 9.36368108 1.95093297 7.69514137 1 6 C0.67 5.67 0.34 5.34 0 5 C-0.04063832 3.33382885 -0.042721 1.66611905 0 0 Z " fill="#2A1C29" transform="translate(373,504)"/>
<path d="M0 0 C0.99 0.495 0.99 0.495 2 1 C2.4140625 3.72265625 2.4140625 3.72265625 2.625 7.0625 C2.69976563 8.16722656 2.77453125 9.27195312 2.8515625 10.41015625 C2.90054688 11.26480469 2.94953125 12.11945312 3 13 C2.34 13 1.68 13 1 13 C-0.10228696 8.59085217 -0.07654536 4.51617599 0 0 Z " fill="#241523" transform="translate(723,559)"/>
<path d="M0 0 C0.33 0 0.66 0 1 0 C0.67 4.29 0.34 8.58 0 13 C-0.66 13 -1.32 13 -2 13 C-2.16682272 8.07872966 -2.24828052 4.49656104 0 0 Z " fill="#271929" transform="translate(725,523)"/>
<path d="M0 0 C0.66 0 1.32 0 2 0 C1.43697042 3.94120709 0.3208055 6.7508723 -2 10 C-2.66 10 -3.32 10 -4 10 C-3.67 8.02 -3.34 6.04 -3 4 C-2.01 3.67 -1.02 3.34 0 3 C0 2.01 0 1.02 0 0 Z " fill="#2A192C" transform="translate(458,513)"/>
<path d="M0 0 C3.06261493 1.02087164 4.05779403 1.52810149 6 4 C6.6875 6.6875 6.6875 6.6875 7 9 C3.17475764 7.549046 1.80909034 5.61818068 0 2 C0 1.34 0 0.68 0 0 Z " fill="#251B26" transform="translate(592,500)"/>
<path d="M0 0 C1 3 1 3 0 6 C-0.66 6 -1.32 6 -2 6 C-2.33 7.98 -2.66 9.96 -3 12 C-3.99 12.33 -4.98 12.66 -6 13 C-5.51675181 7.84535266 -2.81389239 4.18449681 0 0 Z " fill="#361E33" transform="translate(443,471)"/>
<path d="M0 0 C0.66 0 1.32 0 2 0 C2 1.32 2 2.64 2 4 C-4.27 3.67 -10.54 3.34 -17 3 C-17 2.67 -17 2.34 -17 2 C-11.39 2 -5.78 2 0 2 C0 1.34 0 0.68 0 0 Z " fill="#190C1B" transform="translate(962,532)"/>
<path d="M0 0 C-0.33 0.99 -0.66 1.98 -1 3 C-1.99 3 -2.98 3 -4 3 C-4 3.66 -4 4.32 -4 5 C-4.99 5.495 -4.99 5.495 -6 6 C-6.33 6.99 -6.66 7.98 -7 9 C-7.66 9 -8.32 9 -9 9 C-8.5047783 5.33535945 -7.9791794 3.29167646 -5 1 C-2 0 -2 0 0 0 Z " fill="#150A1D" transform="translate(680,526)"/>
<path d="M0 0 C0.66 0 1.32 0 2 0 C6 6.625 6 6.625 6 10 C5.34 10 4.68 10 4 10 C3.67 8.68 3.34 7.36 3 6 C2.34 6 1.68 6 1 6 C0.67 4.02 0.34 2.04 0 0 Z " fill="#241724" transform="translate(285,638)"/>
<path d="M0 0 C0.66 0 1.32 0 2 0 C2.36666667 5.5 2.36666667 5.5 0.625 7.875 C-1 9 -1 9 -3 9 C-2.67 7.35 -2.34 5.7 -2 4 C-1.34 4 -0.68 4 0 4 C0 2.68 0 1.36 0 0 Z " fill="#1D1725" transform="translate(602,585)"/>
<path d="M0 0 C2.86632997 1.05098766 3.83006643 1.66862954 5.25 4.4375 C6 7 6 7 6 10 C5.34 10 4.68 10 4 10 C3.67 8.02 3.34 6.04 3 4 C2.01 3.67 1.02 3.34 0 3 C0 2.01 0 1.02 0 0 Z " fill="#281627" transform="translate(378,582)"/>
<path d="M0 0 C0.66 0 1.32 0 2 0 C1.67 1.65 1.34 3.3 1 5 C0.34 5 -0.32 5 -1 5 C-1.103125 5.78375 -1.20625 6.5675 -1.3125 7.375 C-2 10 -2 10 -5 12 C-3.68938409 7.76570244 -2.05643741 3.92592596 0 0 Z " fill="#160A14" transform="translate(106,516)"/>
<path d="M0 0 C0.66 0 1.32 0 2 0 C6 6.625 6 6.625 6 10 C5.34 10 4.68 10 4 10 C4 9.01 4 8.02 4 7 C3.01 6.67 2.02 6.34 1 6 C0.67 4.02 0.34 2.04 0 0 Z " fill="#251622" transform="translate(363,487)"/>
<path d="M0 0 C0.66 0 1.32 0 2 0 C0.80100302 3.0831351 -0.47700477 6.06279492 -2 9 C-2.66 9 -3.32 9 -4 9 C-2.25 2.25 -2.25 2.25 0 0 Z " fill="#221520" transform="translate(411,595)"/>
<path d="M0 0 C2.4932534 0.99730136 3.77467439 1.65074531 5.25 3.9375 C6 6 6 6 6 9 C5.34 9 4.68 9 4 9 C1.98217268 6.09432866 0.64505596 3.48330216 0 0 Z " fill="#211324" transform="translate(868,579)"/>
<path d="M0 0 C2.475 0.495 2.475 0.495 5 1 C5 1.66 5 2.32 5 3 C6.32 3.33 7.64 3.66 9 4 C9 4.66 9 5.32 9 6 C7.35 5.67 5.7 5.34 4 5 C4 4.34 4 3.68 4 3 C2.68 2.67 1.36 2.34 0 2 C0 1.34 0 0.68 0 0 Z " fill="#1D1625" transform="translate(841,575)"/>
<path d="M0 0 C0.66 0 1.32 0 2 0 C1.29445932 3.66881155 -0.27735506 6.70450534 -2 10 C-2.66 10 -3.32 10 -4 10 C-3.67 8.02 -3.34 6.04 -3 4 C-2.34 4 -1.68 4 -1 4 C-0.67 2.68 -0.34 1.36 0 0 Z " fill="#281A2D" transform="translate(433,557)"/>
<path d="M0 0 C1 3 1 3 -0.25 6.625 C-2 10 -2 10 -5 11 C-5 10.34 -5 9.68 -5 9 C-4.34 9 -3.68 9 -3 9 C-2.87625 8.071875 -2.7525 7.14375 -2.625 6.1875 C-2 3 -2 3 0 0 Z " fill="#2E1F30" transform="translate(870,510)"/>
<path d="M0 0 C0.66 0 1.32 0 2 0 C1.67 1.98 1.34 3.96 1 6 C0.34 6 -0.32 6 -1 6 C-1 6.99 -1 7.98 -1 9 C-1.66 9 -2.32 9 -3 9 C-3.33 9.66 -3.66 10.32 -4 11 C-3.39301257 6.87248551 -1.96189209 3.6678852 0 0 Z " fill="#271927" transform="translate(730,512)"/>
<path d="M0 0 C3.8063457 0.67170806 7.35206816 1.72746564 11 3 C11 3.66 11 4.32 11 5 C7.0507432 4.44894091 3.65079826 3.61064629 0 2 C0 1.34 0 0.68 0 0 Z " fill="#261127" transform="translate(954,485)"/>
<path d="M0 0 C0.66 0 1.32 0 2 0 C0.80100302 3.0831351 -0.47700477 6.06279492 -2 9 C-2.66 9 -3.32 9 -4 9 C-3.4739075 5.21213403 -2.61896089 2.82847776 0 0 Z " fill="#1A0C17" transform="translate(127,481)"/>
<path d="M0 0 C0.66 0 1.32 0 2 0 C2.66 2.31 3.32 4.62 4 7 C4.66 7 5.32 7 6 7 C6 7.99 6 8.98 6 10 C3 9 3 9 1.3125 6.125 C0 3 0 3 0 0 Z " fill="#221521" transform="translate(187,468)"/>
<path d="M0 0 C0.66 0 1.32 0 2 0 C6 6.625 6 6.625 6 10 C5.34 10 4.68 10 4 10 C3.67 8.35 3.34 6.7 3 5 C2.34 5 1.68 5 1 5 C0.67 3.35 0.34 1.7 0 0 Z " fill="#271423" transform="translate(272,616)"/>
<path d="M0 0 C0 0.66 0 1.32 0 2 C-6.625 6 -6.625 6 -10 6 C-10 5.34 -10 4.68 -10 4 C-8.35 3.67 -6.7 3.34 -5 3 C-5 2.34 -5 1.68 -5 1 C-2 0 -2 0 0 0 Z " fill="#1F111F" transform="translate(978,601)"/>
<path d="M0 0 C3.94120709 0.56302958 6.7508723 1.6791945 10 4 C10 4.66 10 5.32 10 6 C8.35 5.67 6.7 5.34 5 5 C5 4.34 5 3.68 5 3 C3.35 2.67 1.7 2.34 0 2 C0 1.34 0 0.68 0 0 Z " fill="#18111B" transform="translate(589,578)"/>
<path d="M0 0 C0 0.66 0 1.32 0 2 C-1.093125 1.814375 -2.18625 1.62875 -3.3125 1.4375 C-6.93624133 0.7421932 -6.93624133 0.7421932 -10 2 C-9.67 1.01 -9.34 0.02 -9 -1 C-5.79937313 -2.60031344 -3.27728194 -1.03173691 0 0 Z " fill="#191124" transform="translate(830,567)"/>
<path d="M0 0 C0 0.66 0 1.32 0 2 C-1.65 2.33 -3.3 2.66 -5 3 C-5 3.66 -5 4.32 -5 5 C-6.65 5.33 -8.3 5.66 -10 6 C-9.34 5.67 -8.68 5.34 -8 5 C-8 4.34 -8 3.68 -8 3 C-7.34 3 -6.68 3 -6 3 C-6 2.34 -6 1.68 -6 1 C-4 0 -4 0 0 0 Z " fill="#201328" transform="translate(846,517)"/>
<path d="M0 0 C0.66 0 1.32 0 2 0 C2.33 0.99 2.66 1.98 3 3 C3.66 3.33 4.32 3.66 5 4 C5.625 7.0625 5.625 7.0625 6 10 C5.34 10 4.68 10 4 10 C2.27735506 6.70450534 0.70554068 3.66881155 0 0 Z " fill="#291E2B" transform="translate(379,515)"/>
<path d="M0 0 C0.66 0.33 1.32 0.66 2 1 C-1.32307692 5.8 -1.32307692 5.8 -4.75 6.8125 C-5.4925 6.874375 -6.235 6.93625 -7 7 C-5.66667905 3.00003714 -3.5042173 2.16217663 0 0 Z " fill="#352435" transform="translate(498,493)"/>
<path d="M0 0 C0.66 0 1.32 0 2 0 C1.67 1.65 1.34 3.3 1 5 C0.34 5 -0.32 5 -1 5 C-1.33 6.65 -1.66 8.3 -2 10 C-2.66 10 -3.32 10 -4 10 C-3.43697042 6.05879291 -2.3208055 3.2491277 0 0 Z " fill="#291C27" transform="translate(153,434)"/>
<path d="M0 0 C3.06261493 1.02087164 4.05779403 1.52810149 6 4 C6.6875 6.6875 6.6875 6.6875 7 9 C6.34 9 5.68 9 5 9 C3.7109375 7.28515625 3.7109375 7.28515625 2.375 5.0625 C1.92898438 4.33160156 1.48296875 3.60070312 1.0234375 2.84765625 C0 1 0 1 0 0 Z " fill="#211225" transform="translate(732,585)"/>
<path d="M0 0 C3.317124 4.422832 3.30466674 5.71910976 3 11 C2.34 11 1.68 11 1 11 C0.67 7.37 0.34 3.74 0 0 Z " fill="#2C202F" transform="translate(861,558)"/>
<path d="M0 0 C0.66 0 1.32 0 2 0 C2.33 1.65 2.66 3.3 3 5 C3.66 5 4.32 5 5 5 C5.33 6.65 5.66 8.3 6 10 C5.34 10 4.68 10 4 10 C0 3.375 0 3.375 0 0 Z " fill="#2F1F31" transform="translate(356,544)"/>
<path d="M0 0 C0.66 0 1.32 0 2 0 C1.8125 2.375 1.8125 2.375 1 5 C-1.5625 6.3125 -1.5625 6.3125 -4 7 C-2.68 4.69 -1.36 2.38 0 0 Z " fill="#281627" transform="translate(875,503)"/>
<path d="M0 0 C1 3 1 3 0.22265625 4.82421875 C-0.8515625 6.54947917 -1.92578125 8.27473958 -3 10 C-3.66 10 -4.32 10 -5 10 C-4.67 8.35 -4.34 6.7 -4 5 C-3.34 5 -2.68 5 -2 5 C-1.7834375 4.0409375 -1.7834375 4.0409375 -1.5625 3.0625 C-1 1 -1 1 0 0 Z " fill="#1A0A16" transform="translate(119,495)"/>
<path d="M0 0 C0.66 0 1.32 0 2 0 C1.8125 2.3125 1.8125 2.3125 1 5 C-1.5625 6.8125 -1.5625 6.8125 -4 8 C-2.87548273 5.0280615 -1.77706209 2.66559313 0 0 Z " fill="#1C111E" transform="translate(989,589)"/>
<path d="M0 0 C0.66 0 1.32 0 2 0 C1.67 1.65 1.34 3.3 1 5 C-0.65 5.33 -2.3 5.66 -4 6 C-3.67 5.01 -3.34 4.02 -3 3 C-2.34 3 -1.68 3 -1 3 C-0.67 2.01 -0.34 1.02 0 0 Z " fill="#221428" transform="translate(818,569)"/>
<path d="M0 0 C3.0831351 1.19899698 6.06279492 2.47700477 9 4 C9 4.66 9 5.32 9 6 C7.35 5.67 5.7 5.34 4 5 C4 4.34 4 3.68 4 3 C2.68 2.67 1.36 2.34 0 2 C0 1.34 0 0.68 0 0 Z " fill="#231729" transform="translate(831,569)"/>
<path d="M0 0 C0.33 0.66 0.66 1.32 1 2 C-0.25 5.0625 -0.25 5.0625 -2 8 C-2.99 8.33 -3.98 8.66 -5 9 C-5 8.34 -5 7.68 -5 7 C-4.34 7 -3.68 7 -3 7 C-2.87625 6.21625 -2.7525 5.4325 -2.625 4.625 C-2 2 -2 2 0 0 Z " fill="#1E0D19" transform="translate(35,641)"/>
<path d="M0 0 C-1 3 -1 3 -3.9375 4.6875 C-7 6 -7 6 -9 6 C-9 5.34 -9 4.68 -9 4 C-2.25 0 -2.25 0 0 0 Z " fill="#190C1B" transform="translate(834,601)"/>
<path d="M0 0 C0 0.66 0 1.32 0 2 C-4.455 2.495 -4.455 2.495 -9 3 C-9 2.34 -9 1.68 -9 1 C-5.8035914 -0.06546953 -3.34252724 -0.07427838 0 0 Z " fill="#261A25" transform="translate(773,484)"/>
<path d="M0 0 C1.0625 1.875 1.0625 1.875 2 4 C1.67 4.66 1.34 5.32 1 6 C0.34 6 -0.32 6 -1 6 C-1 6.66 -1 7.32 -1 8 C-1.66 8 -2.32 8 -3 8 C-2.67 6.35 -2.34 4.7 -2 3 C-1.34 3 -0.68 3 0 3 C0 2.01 0 1.02 0 0 Z " fill="#251520" transform="translate(45,622)"/>
<path d="M0 0 C0.66 0 1.32 0 2 0 C2.33 1.65 2.66 3.3 3 5 C3.66 5 4.32 5 5 5 C5.33 5.99 5.66 6.98 6 8 C2.83884224 6.63016497 2.0072908 6.0109362 0 3 C0 2.01 0 1.02 0 0 Z " fill="#170B1B" transform="translate(897,561)"/>
<path d="M0 0 C0.99 0 1.98 0 3 0 C2.67 0.99 2.34 1.98 2 3 C1.34 3 0.68 3 0 3 C-0.33 3.99 -0.66 4.98 -1 6 C-1.66 6 -2.32 6 -3 6 C-1.125 1.125 -1.125 1.125 0 0 Z " fill="#201126" transform="translate(765,520)"/>
<path d="M0 0 C0.66 0 1.32 0 2 0 C2 2.31 2 4.62 2 7 C1.01 7.33 0.02 7.66 -1 8 C-1.125 2.25 -1.125 2.25 0 0 Z " fill="#210D1D" transform="translate(137,462)"/>
<path d="M0 0 C0.66 0.33 1.32 0.66 2 1 C1.0479279 2.00596297 0.08812654 3.00461563 -0.875 4 C-1.40867187 4.556875 -1.94234375 5.11375 -2.4921875 5.6875 C-4 7 -4 7 -6 7 C-5.67 6.01 -5.34 5.02 -5 4 C-4.34 4 -3.68 4 -3 4 C-3 3.34 -3 2.68 -3 2 C-2.01 1.34 -1.02 0.68 0 0 Z " fill="#160919" transform="translate(841,594)"/>
<path d="M0 0 C2.31 0 4.62 0 7 0 C7.33 0.99 7.66 1.98 8 3 C5.36 2.67 2.72 2.34 0 2 C0 1.34 0 0.68 0 0 Z " fill="#1A0E1C" transform="translate(531,581)"/>
<path d="M0 0 C1.32 0.33 2.64 0.66 4 1 C4.33 2.98 4.66 4.96 5 7 C4.34 7 3.68 7 3 7 C2.01 4.69 1.02 2.38 0 0 Z " fill="#221324" transform="translate(307,460)"/>
</svg>
